<svg width="1438" height="300" viewBox="0 0 1438 300" fill="none" xmlns="http://www.w3.org/2000/svg">
<path d="M392.844 75.2266C410.943 75.2266 424.484 79.1654 433.469 87.043C442.518 94.9206 447.043 106.118 447.043 120.637C447.043 127.147 446.099 133.397 444.211 139.387C442.388 145.376 439.361 150.715 435.129 155.402C430.962 160.09 425.396 163.801 418.43 166.535C411.529 169.27 403 170.637 392.844 170.637H382.004V218H343.43V75.2266H392.844ZM391.965 106.379H382.004V139.191H389.621C392.941 139.191 396.034 138.638 398.898 137.531C401.763 136.359 404.042 134.504 405.734 131.965C407.492 129.361 408.371 125.91 408.371 121.613C408.371 117.121 407.036 113.475 404.367 110.676C401.698 107.811 397.564 106.379 391.965 106.379ZM575.168 107.355V218H546.359L541.574 204.23H539.328C537.049 207.941 534.152 210.969 530.637 213.312C527.186 215.591 523.345 217.251 519.113 218.293C514.882 219.4 510.487 219.953 505.93 219.953C498.703 219.953 492.16 218.553 486.301 215.754C480.507 212.954 475.884 208.56 472.434 202.57C469.048 196.581 467.355 188.866 467.355 179.426V107.355H505.539V167.805C505.539 174.966 506.548 180.435 508.566 184.211C510.65 187.922 514.035 189.777 518.723 189.777C523.54 189.777 527.251 188.475 529.855 185.871C532.525 183.267 534.38 179.426 535.422 174.348C536.464 169.27 536.984 163.085 536.984 155.793V107.355H575.168ZM668.332 105.402C670.415 105.402 672.596 105.565 674.875 105.891C677.154 106.151 678.846 106.379 679.953 106.574L676.535 142.609C675.298 142.284 673.703 142.023 671.75 141.828C669.797 141.568 667.062 141.438 663.547 141.438C661.138 141.438 658.566 141.665 655.832 142.121C653.098 142.577 650.493 143.553 648.02 145.051C645.611 146.483 643.625 148.697 642.062 151.691C640.5 154.621 639.719 158.592 639.719 163.605V218H601.535V107.355H629.953L635.91 125.031H637.766C639.784 121.385 642.355 118.098 645.48 115.168C648.671 112.173 652.219 109.797 656.125 108.039C660.096 106.281 664.165 105.402 668.332 105.402ZM733.273 266.047C717.583 266.047 705.474 263.41 696.945 258.137C688.482 252.928 684.25 245.409 684.25 235.578C684.25 229.003 686.301 223.566 690.402 219.27C694.504 214.973 700.656 211.88 708.859 209.992C705.474 208.56 702.512 206.249 699.973 203.059C697.499 199.868 696.262 196.711 696.262 193.586C696.262 190.135 697.206 187.108 699.094 184.504C700.982 181.835 704.921 178.677 710.91 175.031C705.181 172.492 700.656 168.521 697.336 163.117C694.081 157.714 692.453 151.138 692.453 143.391C692.453 135.383 694.276 128.547 697.922 122.883C701.633 117.219 707.004 112.889 714.035 109.895C721.132 106.9 729.758 105.402 739.914 105.402C741.281 105.402 743.365 105.533 746.164 105.793C748.964 105.988 751.796 106.249 754.66 106.574C757.525 106.835 759.738 107.095 761.301 107.355H799.875V125.812L784.738 131.379C785.78 133.267 786.561 135.318 787.082 137.531C787.603 139.745 787.863 142.089 787.863 144.562C787.863 156.477 783.664 165.721 775.266 172.297C766.932 178.872 754.465 182.16 737.863 182.16C733.762 182.16 730.507 181.9 728.098 181.379C727.642 182.225 727.284 183.072 727.023 183.918C726.828 184.699 726.73 185.448 726.73 186.164C726.73 187.661 727.609 188.866 729.367 189.777C731.19 190.624 733.371 191.21 735.91 191.535C738.514 191.861 740.988 192.023 743.332 192.023H761.691C774.126 192.023 783.436 194.628 789.621 199.836C795.806 205.044 798.898 212.889 798.898 223.371C798.898 236.848 793.137 247.329 781.613 254.816C770.155 262.303 754.042 266.047 733.273 266.047ZM735.129 242.219C739.751 242.219 744.406 241.796 749.094 240.949C753.781 240.168 757.72 238.866 760.91 237.043C764.1 235.22 765.695 232.811 765.695 229.816C765.695 227.538 764.751 225.812 762.863 224.641C760.975 223.534 758.534 222.785 755.539 222.395C752.544 222.004 749.387 221.809 746.066 221.809H731.223C728.488 221.809 725.982 222.232 723.703 223.078C721.49 223.99 719.732 225.194 718.43 226.691C717.128 228.189 716.477 229.882 716.477 231.77C716.477 234.895 718.169 237.401 721.555 239.289C724.94 241.242 729.465 242.219 735.129 242.219ZM740.305 160.578C743.951 160.578 746.75 159.178 748.703 156.379C750.721 153.579 751.73 149.38 751.73 143.781C751.73 138.052 750.786 133.755 748.898 130.891C747.01 128.026 744.146 126.594 740.305 126.594C736.333 126.594 733.371 128.026 731.418 130.891C729.465 133.69 728.488 137.922 728.488 143.586C728.488 149.25 729.465 153.514 731.418 156.379C733.371 159.178 736.333 160.578 740.305 160.578ZM866.574 105.402C877.316 105.402 886.594 107.29 894.406 111.066C902.219 114.777 908.241 120.376 912.473 127.863C916.704 135.35 918.82 144.725 918.82 155.988V172.98H850.559C850.884 178.775 853.033 183.527 857.004 187.238C861.04 190.949 866.965 192.805 874.777 192.805C881.678 192.805 887.993 192.121 893.723 190.754C899.517 189.387 905.474 187.271 911.594 184.406V211.848C906.255 214.647 900.428 216.698 894.113 218C887.798 219.302 879.823 219.953 870.188 219.953C859.055 219.953 849.094 217.967 840.305 213.996C831.516 210.025 824.582 203.872 819.504 195.539C814.491 187.206 811.984 176.496 811.984 163.41C811.984 150.129 814.263 139.224 818.82 130.695C823.378 122.102 829.758 115.754 837.961 111.652C846.164 107.486 855.702 105.402 866.574 105.402ZM867.941 131.379C863.449 131.379 859.673 132.811 856.613 135.676C853.618 138.475 851.861 142.902 851.34 148.957H884.152C884.087 145.702 883.436 142.74 882.199 140.07C880.962 137.401 879.139 135.285 876.73 133.723C874.387 132.16 871.457 131.379 867.941 131.379ZM1044.02 75.2266C1062.11 75.2266 1075.66 79.1654 1084.64 87.043C1093.69 94.9206 1098.21 106.118 1098.21 120.637C1098.21 127.147 1097.27 133.397 1095.38 139.387C1093.56 145.376 1090.53 150.715 1086.3 155.402C1082.13 160.09 1076.57 163.801 1069.6 166.535C1062.7 169.27 1054.17 170.637 1044.02 170.637H1033.18V218H994.602V75.2266H1044.02ZM1043.14 106.379H1033.18V139.191H1040.79C1044.11 139.191 1047.21 138.638 1050.07 137.531C1052.93 136.359 1055.21 134.504 1056.91 131.965C1058.66 129.361 1059.54 125.91 1059.54 121.613C1059.54 117.121 1058.21 113.475 1055.54 110.676C1052.87 107.811 1048.74 106.379 1043.14 106.379ZM1224.39 162.434C1224.39 171.678 1223.12 179.882 1220.58 187.043C1218.04 194.204 1214.36 200.227 1209.54 205.109C1204.73 209.992 1198.9 213.703 1192.06 216.242C1185.23 218.716 1177.51 219.953 1168.92 219.953C1160.91 219.953 1153.55 218.716 1146.85 216.242C1140.21 213.703 1134.41 209.992 1129.46 205.109C1124.52 200.227 1120.68 194.204 1117.94 187.043C1115.27 179.882 1113.94 171.678 1113.94 162.434C1113.94 150.194 1116.15 139.842 1120.58 131.379C1125.07 122.915 1131.45 116.47 1139.72 112.043C1148.05 107.616 1157.98 105.402 1169.5 105.402C1180.12 105.402 1189.56 107.616 1197.82 112.043C1206.09 116.47 1212.57 122.915 1217.26 131.379C1222.01 139.842 1224.39 150.194 1224.39 162.434ZM1152.71 162.434C1152.71 168.749 1153.26 174.087 1154.37 178.449C1155.47 182.746 1157.23 186.034 1159.64 188.312C1162.11 190.526 1165.34 191.633 1169.31 191.633C1173.28 191.633 1176.44 190.526 1178.78 188.312C1181.12 186.034 1182.82 182.746 1183.86 178.449C1184.97 174.087 1185.52 168.749 1185.52 162.434C1185.52 156.118 1184.97 150.845 1183.86 146.613C1182.82 142.382 1181.09 139.191 1178.68 137.043C1176.34 134.895 1173.15 133.82 1169.11 133.82C1163.32 133.82 1159.12 136.229 1156.52 141.047C1153.98 145.865 1152.71 152.993 1152.71 162.434ZM1328.49 184.016C1328.49 191.047 1326.93 197.264 1323.8 202.668C1320.68 208.072 1315.66 212.303 1308.76 215.363C1301.93 218.423 1292.91 219.953 1281.71 219.953C1273.83 219.953 1266.77 219.53 1260.52 218.684C1254.33 217.837 1248.05 216.21 1241.67 213.801V183.234C1248.64 186.424 1255.73 188.736 1262.96 190.168C1270.19 191.535 1275.88 192.219 1280.05 192.219C1284.35 192.219 1287.47 191.763 1289.43 190.852C1291.44 189.875 1292.45 188.443 1292.45 186.555C1292.45 184.927 1291.77 183.56 1290.4 182.453C1289.1 181.281 1286.72 179.947 1283.27 178.449C1279.89 176.952 1275.1 174.934 1268.92 172.395C1262.8 169.855 1257.69 167.089 1253.59 164.094C1249.55 161.099 1246.52 157.518 1244.5 153.352C1242.49 149.185 1241.48 144.074 1241.48 138.02C1241.48 127.212 1245.64 119.074 1253.98 113.605C1262.31 108.137 1273.35 105.402 1287.08 105.402C1294.37 105.402 1301.24 106.216 1307.69 107.844C1314.13 109.406 1320.81 111.717 1327.71 114.777L1317.26 139.387C1311.79 136.913 1306.26 134.927 1300.66 133.43C1295.06 131.932 1290.6 131.184 1287.28 131.184C1284.28 131.184 1281.97 131.574 1280.34 132.355C1278.72 133.137 1277.9 134.276 1277.9 135.773C1277.9 137.141 1278.46 138.345 1279.56 139.387C1280.73 140.428 1282.92 141.633 1286.11 143C1289.3 144.367 1293.95 146.288 1300.07 148.762C1306.52 151.366 1311.82 154.165 1315.99 157.16C1320.22 160.09 1323.35 163.671 1325.36 167.902C1327.45 172.134 1328.49 177.505 1328.49 184.016ZM1403.98 189.777C1407.43 189.777 1410.58 189.419 1413.45 188.703C1416.31 187.987 1419.31 187.076 1422.43 185.969V213.801C1418.27 215.624 1413.84 217.089 1409.15 218.195C1404.53 219.367 1398.61 219.953 1391.38 219.953C1384.22 219.953 1377.9 218.846 1372.43 216.633C1366.96 214.354 1362.7 210.448 1359.64 204.914C1356.65 199.315 1355.15 191.535 1355.15 181.574V135.969H1341.77V120.441L1358.76 108.43L1368.62 85.1875H1393.62V107.355H1420.77V135.969H1393.62V179.035C1393.62 182.616 1394.54 185.318 1396.36 187.141C1398.18 188.898 1400.72 189.777 1403.98 189.777Z" fill="#7200A7"/>
<g clip-path="url(#clip0_1235_2427)">
<path d="M120.115 284.523C129.02 291.468 139.26 296.782 150 300C160.74 296.782 170.981 291.469 179.885 284.523C169.298 281.299 159.262 276.542 150 270.33C140.739 276.542 130.702 281.299 120.115 284.523Z" fill="url(#paint0_linear_1235_2427)"/>
<path d="M33.7454 223.988C35.1276 235.203 38.611 246.192 43.9348 256.061C53.8079 261.39 64.7977 264.873 76.0125 266.255C70.7848 256.474 67.0624 246.024 64.9049 235.095C53.976 232.938 43.527 229.215 33.7454 223.988Z" fill="url(#paint1_linear_1235_2427)"/>
<path d="M223.988 266.255C235.202 264.873 246.192 261.39 256.065 256.061C261.389 246.192 264.873 235.203 266.255 223.988C256.473 229.215 246.023 232.938 235.095 235.095C232.938 246.024 229.215 256.474 223.988 266.255Z" fill="url(#paint2_linear_1235_2427)"/>
<path d="M115.347 233.678C106.611 235.927 97.61 237.125 88.5479 237.253C91.3627 247.361 96.0086 257.101 102.088 265.659C112.441 263.92 122.62 260.314 131.768 255.148C125.46 248.671 119.942 241.46 115.347 233.678Z" fill="url(#paint3_linear_1235_2427)"/>
<path d="M168.231 255.148C177.381 260.314 187.554 263.92 197.912 265.659C203.991 257.101 208.638 247.361 211.458 237.253C202.39 237.125 193.395 235.927 184.654 233.678C180.058 241.46 174.545 248.671 168.231 255.148Z" fill="url(#paint4_linear_1235_2427)"/>
<path d="M136.898 225.713C140.336 230.991 144.319 235.892 148.746 240.328C149.153 240.736 149.572 241.134 150 241.552C150.429 241.134 150.847 240.736 151.255 240.328C155.681 235.892 159.664 230.991 163.107 225.713C158.589 223.489 154.187 220.96 150 218.149C145.813 220.959 141.412 223.489 136.898 225.713Z" fill="url(#paint5_linear_1235_2427)"/>
<path d="M101.802 198.198C96.8608 197.219 91.9653 195.899 87.2016 194.271C85.9014 200.427 85.2434 206.71 85.2434 212.987C85.2434 213.559 85.254 214.14 85.2592 214.732C85.861 214.747 86.4422 214.758 87.0135 214.758C93.2919 214.758 99.5743 214.1 105.73 212.805C104.102 208.036 102.781 203.14 101.802 198.198Z" fill="url(#paint6_linear_1235_2427)"/>
<path d="M198.198 198.198C197.219 203.14 195.898 208.035 194.272 212.804C200.427 214.099 206.71 214.757 212.988 214.757C213.558 214.757 214.14 214.746 214.731 214.731C214.747 214.139 214.757 213.558 214.757 212.987C214.757 206.709 214.1 200.426 212.799 194.271C208.035 195.898 203.14 197.219 198.198 198.198Z" fill="url(#paint7_linear_1235_2427)"/>
<path d="M233.677 184.654C235.926 193.389 237.124 202.39 237.252 211.447C247.36 208.637 257.101 203.992 265.658 197.912C263.919 187.56 260.309 177.381 255.148 168.231C248.671 174.54 241.46 180.058 233.677 184.654Z" fill="url(#paint8_linear_1235_2427)"/>
<path d="M62.7579 211.448C62.8751 202.39 64.0733 193.389 66.3228 184.654C58.5403 180.059 51.3292 174.541 44.8528 168.232C39.6919 177.382 36.0813 187.561 34.3423 197.913C42.8993 203.992 52.6399 208.638 62.7579 211.448Z" fill="url(#paint9_linear_1235_2427)"/>
<path d="M125.292 208.306C128.652 206.68 131.937 204.931 135.17 203.11C133.365 201.258 131.569 199.367 129.82 197.413C127.204 197.535 124.598 197.617 122.033 197.668C123.012 201.259 124.108 204.808 125.292 208.306Z" fill="url(#paint10_linear_1235_2427)"/>
<path d="M164.83 203.11C168.058 204.931 171.363 206.68 174.708 208.306C175.891 204.808 176.988 201.259 177.967 197.668C175.402 197.618 172.796 197.536 170.195 197.413C168.43 199.367 166.635 201.259 164.83 203.11Z" fill="url(#paint11_linear_1235_2427)"/>
<path d="M0 150.001C3.21797 160.741 8.52656 170.981 15.4781 179.886C18.7014 169.293 23.4592 159.267 29.6707 150.001C23.4592 140.735 18.7014 130.708 15.4781 120.116C8.52656 129.02 3.21797 139.261 0 150.001Z" fill="url(#paint12_linear_1235_2427)"/>
<path d="M284.522 120.116C281.299 130.708 276.536 140.739 270.329 150.001C276.536 159.262 281.299 169.293 284.522 179.886C291.473 170.981 296.782 160.741 300 150.001C296.782 139.261 291.473 129.02 284.522 120.116Z" fill="url(#paint13_linear_1235_2427)"/>
<path d="M91.6938 174.709C95.1872 175.892 98.7415 176.988 102.332 177.968C102.383 175.403 102.465 172.796 102.587 170.181C100.665 168.436 98.762 166.652 96.8905 164.831C95.07 168.058 93.321 171.363 91.6938 174.709Z" fill="url(#paint14_linear_1235_2427)"/>
<path d="M197.663 177.967C201.243 176.988 204.802 175.891 208.301 174.708C206.669 171.363 204.925 168.058 203.089 164.83C201.237 166.635 199.335 168.43 197.428 170.18C197.565 172.796 197.627 175.402 197.663 177.967Z" fill="url(#paint15_linear_1235_2427)"/>
<path d="M218.148 150C220.958 154.188 223.488 158.583 225.711 163.107C230.989 159.664 235.901 155.681 240.327 151.254C240.735 150.846 241.133 150.428 241.551 150C241.133 149.572 240.735 149.154 240.327 148.746C235.901 144.319 230.989 140.336 225.711 136.894C223.488 141.418 220.958 145.814 218.148 150Z" fill="url(#paint16_linear_1235_2427)"/>
<path d="M59.673 148.746C59.2751 149.154 58.8673 149.572 58.449 150C58.8673 150.429 59.2646 150.846 59.673 151.254C64.0992 155.681 69.0105 159.664 74.2886 163.107C76.5123 158.583 79.0412 154.188 81.8513 150C79.0412 145.814 76.5123 141.418 74.2886 136.894C69.0099 140.337 64.0992 144.319 59.673 148.746Z" fill="url(#paint17_linear_1235_2427)"/>
<path d="M208.301 125.292C204.802 124.109 201.243 123.012 197.663 122.033C197.627 124.599 197.565 127.205 197.428 129.821C199.335 131.57 201.238 133.365 203.089 135.171C204.925 131.943 206.669 128.638 208.301 125.292Z" fill="url(#paint18_linear_1235_2427)"/>
<path d="M102.332 122.033C98.7415 123.012 95.1872 124.109 91.6938 125.292C93.3204 128.637 95.07 131.942 96.8905 135.171C98.762 133.349 100.665 131.565 102.587 129.821C102.465 127.205 102.383 124.599 102.332 122.033Z" fill="url(#paint19_linear_1235_2427)"/>
<path d="M237.252 88.5527C237.124 97.6102 235.926 106.611 233.677 115.348C241.46 119.943 248.671 125.46 255.147 131.769C260.308 122.619 263.919 112.44 265.658 102.088C257.101 96.0082 247.36 91.3629 237.252 88.5527Z" fill="url(#paint20_linear_1235_2427)"/>
<path d="M62.758 88.5527C52.64 91.3629 42.8994 96.0082 34.3418 102.088C36.0809 112.44 39.6914 122.619 44.8523 131.769C51.3287 125.455 58.5398 119.943 66.3223 115.348C64.0734 106.611 62.8752 97.6102 62.758 88.5527Z" fill="url(#paint21_linear_1235_2427)"/>
<path d="M212.988 85.2432C206.71 85.2432 200.427 85.9012 194.272 87.1961C195.898 91.9644 197.219 96.8605 198.198 101.802C203.14 102.781 208.036 104.102 212.798 105.729C214.099 99.5734 214.757 93.2898 214.757 87.0127C214.757 86.4414 214.747 85.8602 214.731 85.2684C214.14 85.2537 213.558 85.2432 212.988 85.2432Z" fill="url(#paint22_linear_1235_2427)"/>
<path d="M101.802 101.803C102.781 96.8609 104.102 91.9654 105.729 87.1971C99.5735 85.9022 93.2905 85.2441 87.0128 85.2441C86.4415 85.2441 85.8602 85.2547 85.2585 85.2699C85.2532 85.8617 85.2427 86.443 85.2427 87.0143C85.2427 93.292 85.9007 99.575 87.2009 105.73C91.9645 104.103 96.8601 102.782 101.802 101.803Z" fill="url(#paint23_linear_1235_2427)"/>
<path d="M174.708 91.6953C171.363 93.3219 168.058 95.0715 164.83 96.892C166.635 98.7435 168.43 100.635 170.195 102.588C172.796 102.467 175.402 102.385 177.967 102.334C176.988 98.743 175.891 95.1934 174.708 91.6953Z" fill="url(#paint24_linear_1235_2427)"/>
<path d="M135.17 96.892C131.937 95.0715 128.652 93.3225 125.292 91.6953C124.108 95.1934 123.012 98.743 122.033 102.334C124.598 102.384 127.204 102.466 129.82 102.588C131.569 100.635 133.365 98.743 135.17 96.892Z" fill="url(#paint25_linear_1235_2427)"/>
<path d="M163.106 74.2889C159.664 69.0102 155.681 64.1094 151.255 59.6727C150.846 59.2648 150.428 58.857 150 58.4492C149.571 58.857 149.153 59.2648 148.745 59.6727C144.318 64.1094 140.336 69.0102 136.898 74.2889C141.411 76.5119 145.812 79.042 150 81.8516C154.187 79.042 158.588 76.5125 163.106 74.2889Z" fill="url(#paint26_linear_1235_2427)"/>
<path d="M76.0123 33.7461C64.7975 35.1277 53.8076 38.6111 43.9346 43.9402C38.6107 53.8086 35.1273 64.7984 33.7451 76.0127C43.5268 70.7861 53.9758 67.0631 64.9047 64.9057C67.0621 53.9873 70.7846 43.5271 76.0123 33.7461Z" fill="url(#paint27_linear_1235_2427)"/>
<path d="M223.988 33.7461C229.215 43.5271 232.938 53.9768 235.095 64.9057C246.023 67.0631 256.473 70.7861 266.255 76.0127C264.873 64.7984 261.389 53.8086 256.065 43.9402C246.192 38.6111 235.202 35.1283 223.988 33.7461Z" fill="url(#paint28_linear_1235_2427)"/>
<path d="M184.653 66.3229C193.389 64.074 202.391 62.8752 211.457 62.758C208.637 52.64 203.991 42.8994 197.912 34.3418C187.554 36.0814 177.38 39.6867 168.231 44.8523C174.54 51.3299 180.058 58.5404 184.653 66.3229Z" fill="url(#paint29_linear_1235_2427)"/>
<path d="M131.768 44.8523C122.619 39.6867 112.44 36.0814 102.087 34.3418C96.0087 42.8994 91.3622 52.64 88.5474 62.748C97.6095 62.8752 106.611 64.074 115.346 66.3229C119.942 58.5404 125.46 51.3299 131.768 44.8523Z" fill="url(#paint30_linear_1235_2427)"/>
<path d="M179.885 15.4779C170.98 8.53281 160.74 3.21836 150 0.000976562C139.26 3.21895 129.02 8.53281 120.115 15.4785C130.702 18.7018 140.739 23.4602 150 29.6711C159.261 23.4596 169.297 18.7012 179.885 15.4779Z" fill="url(#paint31_linear_1235_2427)"/>
<path d="M143.3 188.6C142.433 188.6 141.433 188.2 140.3 187.4C139.167 186.467 138.5 185.6 138.3 184.8C137.833 183 137.6 179.533 137.6 174.4C137.6 171.267 137.7 167.933 137.9 164.4C138.167 160.867 138.533 157.133 139 153.2C136.667 153.667 134.833 154.033 133.5 154.3C132.167 154.5 131.367 154.6 131.1 154.6C125.767 154.6 123.1 152.067 123.1 147C123.1 145.467 123.333 144.033 123.8 142.7C126.4 135.1 131.267 128.7 138.4 123.5C145.4 118.367 152.967 115.8 161.1 115.8C166.033 115.8 170.533 117.1 174.6 119.7C179.2 122.7 181.5 126.567 181.5 131.3C181.5 135.1 180.1 139.567 177.3 144.7C174.767 149.233 171.867 153 168.6 156C159.667 164 152.767 168 147.9 168C146.9 168 145.9 167.667 144.9 167C143.767 166.267 143.2 165.4 143.2 164.4C143.2 163.333 143.733 162.267 144.8 161.2C145.867 160.133 146.933 159.6 148 159.6C148.4 159.6 148.6 159.733 148.6 160C148.6 160.4 148 161 146.8 161.8C145.667 162.733 145.1 163.6 145.1 164.4V164.9C145.9 165.1 146.7 165.2 147.5 165.2C150.567 165.2 154.867 162.933 160.4 158.4C168.6 151.8 173.8 143.667 176 134C176.4 132.2 176.6 130.533 176.6 129C176.6 121.467 172.1 117.7 163.1 117.7C155.567 117.7 148.667 119.767 142.4 123.9C139.467 125.833 136.8 128.167 134.4 130.9C132.067 133.633 130 136.733 128.2 140.2C126.6 143.4 125.8 146.167 125.8 148.5C125.8 151.3 127.033 152.7 129.5 152.7C130.7 152.7 132.5 152.4 134.9 151.8C137.233 151.2 138.8 150.6 139.6 150C141 137.4 145.2 129.1 152.2 125.1C152.933 124.767 153.533 124.5 154 124.3C154.533 124.033 155.033 123.9 155.5 123.9C155.967 123.9 156.2 124.033 156.2 124.3C156.2 124.7 155.6 125.467 154.4 126.6C150 130.6 146.9 137.4 145.1 147C152.767 142.733 156.6 137.933 156.6 132.6V131.4C156.6 130.733 156.7 130.4 156.9 130.4C157.3 130.4 157.7 130.967 158.1 132.1C158.367 132.9 158.5 133.667 158.5 134.4C158.5 137.467 156.833 140.7 153.5 144.1C150.567 147.167 147.5 149.467 144.3 151C143.567 155.467 143 159.8 142.6 164C142.2 168.2 142 172.267 142 176.2C142 180.8 142.333 184.1 143 186.1C143.733 186.1 144.867 184.833 146.4 182.3L148.8 178.5C149.133 178.5 149.3 178.833 149.3 179.5C149.3 180.233 149.133 181.033 148.8 181.9C148.467 182.833 148 183.867 147.4 185C146 187.4 144.633 188.6 143.3 188.6Z" fill="#7200A7"/>
</g>
<defs>
<linearGradient id="paint0_linear_1235_2427" x1="179.885" y1="285.165" x2="120.115" y2="285.165" gradientUnits="userSpaceOnUse">
<stop stop-color="#9600DD"/>
<stop offset="0.525" stop-color="#7200A7"/>
<stop offset="1" stop-color="#510077"/>
</linearGradient>
<linearGradient id="paint1_linear_1235_2427" x1="76.0125" y1="245.122" x2="33.7454" y2="245.122" gradientUnits="userSpaceOnUse">
<stop stop-color="#9600DD"/>
<stop offset="0.525" stop-color="#7200A7"/>
<stop offset="1" stop-color="#510077"/>
</linearGradient>
<linearGradient id="paint2_linear_1235_2427" x1="266.255" y1="245.122" x2="223.988" y2="245.122" gradientUnits="userSpaceOnUse">
<stop stop-color="#9600DD"/>
<stop offset="0.525" stop-color="#7200A7"/>
<stop offset="1" stop-color="#510077"/>
</linearGradient>
<linearGradient id="paint3_linear_1235_2427" x1="131.768" y1="249.668" x2="88.5479" y2="249.668" gradientUnits="userSpaceOnUse">
<stop stop-color="#9600DD"/>
<stop offset="0.525" stop-color="#7200A7"/>
<stop offset="1" stop-color="#510077"/>
</linearGradient>
<linearGradient id="paint4_linear_1235_2427" x1="211.458" y1="249.668" x2="168.231" y2="249.668" gradientUnits="userSpaceOnUse">
<stop stop-color="#9600DD"/>
<stop offset="0.525" stop-color="#7200A7"/>
<stop offset="1" stop-color="#510077"/>
</linearGradient>
<linearGradient id="paint5_linear_1235_2427" x1="163.107" y1="229.851" x2="136.898" y2="229.851" gradientUnits="userSpaceOnUse">
<stop stop-color="#9600DD"/>
<stop offset="0.525" stop-color="#7200A7"/>
<stop offset="1" stop-color="#510077"/>
</linearGradient>
<linearGradient id="paint6_linear_1235_2427" x1="105.73" y1="204.515" x2="85.2434" y2="204.515" gradientUnits="userSpaceOnUse">
<stop stop-color="#9600DD"/>
<stop offset="0.525" stop-color="#7200A7"/>
<stop offset="1" stop-color="#510077"/>
</linearGradient>
<linearGradient id="paint7_linear_1235_2427" x1="214.757" y1="204.514" x2="194.272" y2="204.514" gradientUnits="userSpaceOnUse">
<stop stop-color="#9600DD"/>
<stop offset="0.525" stop-color="#7200A7"/>
<stop offset="1" stop-color="#510077"/>
</linearGradient>
<linearGradient id="paint8_linear_1235_2427" x1="265.658" y1="189.839" x2="233.677" y2="189.839" gradientUnits="userSpaceOnUse">
<stop stop-color="#9600DD"/>
<stop offset="0.525" stop-color="#7200A7"/>
<stop offset="1" stop-color="#510077"/>
</linearGradient>
<linearGradient id="paint9_linear_1235_2427" x1="66.3228" y1="189.84" x2="34.3423" y2="189.84" gradientUnits="userSpaceOnUse">
<stop stop-color="#9600DD"/>
<stop offset="0.525" stop-color="#7200A7"/>
<stop offset="1" stop-color="#510077"/>
</linearGradient>
<linearGradient id="paint10_linear_1235_2427" x1="135.17" y1="202.86" x2="122.033" y2="202.86" gradientUnits="userSpaceOnUse">
<stop stop-color="#9600DD"/>
<stop offset="0.525" stop-color="#7200A7"/>
<stop offset="1" stop-color="#510077"/>
</linearGradient>
<linearGradient id="paint11_linear_1235_2427" x1="177.967" y1="202.86" x2="164.83" y2="202.86" gradientUnits="userSpaceOnUse">
<stop stop-color="#9600DD"/>
<stop offset="0.525" stop-color="#7200A7"/>
<stop offset="1" stop-color="#510077"/>
</linearGradient>
<linearGradient id="paint12_linear_1235_2427" x1="29.6707" y1="150.001" x2="0" y2="150.001" gradientUnits="userSpaceOnUse">
<stop stop-color="#9600DD"/>
<stop offset="0.525" stop-color="#7200A7"/>
<stop offset="1" stop-color="#510077"/>
</linearGradient>
<linearGradient id="paint13_linear_1235_2427" x1="300" y1="150.001" x2="270.329" y2="150.001" gradientUnits="userSpaceOnUse">
<stop stop-color="#9600DD"/>
<stop offset="0.525" stop-color="#7200A7"/>
<stop offset="1" stop-color="#510077"/>
</linearGradient>
<linearGradient id="paint14_linear_1235_2427" x1="102.587" y1="171.399" x2="91.6938" y2="171.399" gradientUnits="userSpaceOnUse">
<stop stop-color="#9600DD"/>
<stop offset="0.525" stop-color="#7200A7"/>
<stop offset="1" stop-color="#510077"/>
</linearGradient>
<linearGradient id="paint15_linear_1235_2427" x1="208.301" y1="171.399" x2="197.428" y2="171.399" gradientUnits="userSpaceOnUse">
<stop stop-color="#9600DD"/>
<stop offset="0.525" stop-color="#7200A7"/>
<stop offset="1" stop-color="#510077"/>
</linearGradient>
<linearGradient id="paint16_linear_1235_2427" x1="241.551" y1="150" x2="218.148" y2="150" gradientUnits="userSpaceOnUse">
<stop stop-color="#9600DD"/>
<stop offset="0.525" stop-color="#7200A7"/>
<stop offset="1" stop-color="#510077"/>
</linearGradient>
<linearGradient id="paint17_linear_1235_2427" x1="81.8513" y1="150" x2="58.449" y2="150" gradientUnits="userSpaceOnUse">
<stop stop-color="#9600DD"/>
<stop offset="0.525" stop-color="#7200A7"/>
<stop offset="1" stop-color="#510077"/>
</linearGradient>
<linearGradient id="paint18_linear_1235_2427" x1="208.301" y1="128.602" x2="197.428" y2="128.602" gradientUnits="userSpaceOnUse">
<stop stop-color="#9600DD"/>
<stop offset="0.525" stop-color="#7200A7"/>
<stop offset="1" stop-color="#510077"/>
</linearGradient>
<linearGradient id="paint19_linear_1235_2427" x1="102.587" y1="128.602" x2="91.6938" y2="128.602" gradientUnits="userSpaceOnUse">
<stop stop-color="#9600DD"/>
<stop offset="0.525" stop-color="#7200A7"/>
<stop offset="1" stop-color="#510077"/>
</linearGradient>
<linearGradient id="paint20_linear_1235_2427" x1="265.658" y1="110.161" x2="233.677" y2="110.161" gradientUnits="userSpaceOnUse">
<stop stop-color="#9600DD"/>
<stop offset="0.525" stop-color="#7200A7"/>
<stop offset="1" stop-color="#510077"/>
</linearGradient>
<linearGradient id="paint21_linear_1235_2427" x1="66.3223" y1="110.161" x2="34.3418" y2="110.161" gradientUnits="userSpaceOnUse">
<stop stop-color="#9600DD"/>
<stop offset="0.525" stop-color="#7200A7"/>
<stop offset="1" stop-color="#510077"/>
</linearGradient>
<linearGradient id="paint22_linear_1235_2427" x1="214.757" y1="95.4859" x2="194.272" y2="95.4859" gradientUnits="userSpaceOnUse">
<stop stop-color="#9600DD"/>
<stop offset="0.525" stop-color="#7200A7"/>
<stop offset="1" stop-color="#510077"/>
</linearGradient>
<linearGradient id="paint23_linear_1235_2427" x1="105.729" y1="95.4872" x2="85.2427" y2="95.4872" gradientUnits="userSpaceOnUse">
<stop stop-color="#9600DD"/>
<stop offset="0.525" stop-color="#7200A7"/>
<stop offset="1" stop-color="#510077"/>
</linearGradient>
<linearGradient id="paint24_linear_1235_2427" x1="177.967" y1="97.1419" x2="164.83" y2="97.1419" gradientUnits="userSpaceOnUse">
<stop stop-color="#9600DD"/>
<stop offset="0.525" stop-color="#7200A7"/>
<stop offset="1" stop-color="#510077"/>
</linearGradient>
<linearGradient id="paint25_linear_1235_2427" x1="135.17" y1="97.1419" x2="122.033" y2="97.1419" gradientUnits="userSpaceOnUse">
<stop stop-color="#9600DD"/>
<stop offset="0.525" stop-color="#7200A7"/>
<stop offset="1" stop-color="#510077"/>
</linearGradient>
<linearGradient id="paint26_linear_1235_2427" x1="163.106" y1="70.1504" x2="136.898" y2="70.1504" gradientUnits="userSpaceOnUse">
<stop stop-color="#9600DD"/>
<stop offset="0.525" stop-color="#7200A7"/>
<stop offset="1" stop-color="#510077"/>
</linearGradient>
<linearGradient id="paint27_linear_1235_2427" x1="76.0123" y1="54.8794" x2="33.7451" y2="54.8794" gradientUnits="userSpaceOnUse">
<stop stop-color="#9600DD"/>
<stop offset="0.525" stop-color="#7200A7"/>
<stop offset="1" stop-color="#510077"/>
</linearGradient>
<linearGradient id="paint28_linear_1235_2427" x1="266.255" y1="54.8794" x2="223.988" y2="54.8794" gradientUnits="userSpaceOnUse">
<stop stop-color="#9600DD"/>
<stop offset="0.525" stop-color="#7200A7"/>
<stop offset="1" stop-color="#510077"/>
</linearGradient>
<linearGradient id="paint29_linear_1235_2427" x1="211.457" y1="50.3323" x2="168.231" y2="50.3323" gradientUnits="userSpaceOnUse">
<stop stop-color="#9600DD"/>
<stop offset="0.525" stop-color="#7200A7"/>
<stop offset="1" stop-color="#510077"/>
</linearGradient>
<linearGradient id="paint30_linear_1235_2427" x1="131.768" y1="50.3323" x2="88.5474" y2="50.3323" gradientUnits="userSpaceOnUse">
<stop stop-color="#9600DD"/>
<stop offset="0.525" stop-color="#7200A7"/>
<stop offset="1" stop-color="#510077"/>
</linearGradient>
<linearGradient id="paint31_linear_1235_2427" x1="179.885" y1="14.836" x2="120.115" y2="14.836" gradientUnits="userSpaceOnUse">
<stop stop-color="#9600DD"/>
<stop offset="0.525" stop-color="#7200A7"/>
<stop offset="1" stop-color="#510077"/>
</linearGradient>
<clipPath id="clip0_1235_2427">
<rect width="300" height="300" fill="white"/>
</clipPath>
</defs>
</svg>
