<svg width="1522" height="400" viewBox="0 0 1522 400" fill="none" xmlns="http://www.w3.org/2000/svg">
<path d="M64.8438 114.227C82.9427 114.227 96.4844 118.165 105.469 126.043C114.518 133.921 119.043 145.118 119.043 159.637C119.043 166.147 118.099 172.397 116.211 178.387C114.388 184.376 111.361 189.715 107.129 194.402C102.962 199.09 97.3958 202.801 90.4297 205.535C83.5286 208.27 75 209.637 64.8438 209.637H54.0039V257H15.4297V114.227H64.8438ZM63.9648 145.379H54.0039V178.191H61.6211C64.9414 178.191 68.0339 177.638 70.8984 176.531C73.763 175.359 76.0417 173.504 77.7344 170.965C79.4922 168.361 80.3711 164.91 80.3711 160.613C80.3711 156.121 79.0365 152.475 76.3672 149.676C73.6979 146.811 69.5638 145.379 63.9648 145.379ZM247.168 146.355V257H218.359L213.574 243.23H211.328C209.049 246.941 206.152 249.969 202.637 252.312C199.186 254.591 195.345 256.251 191.113 257.293C186.882 258.4 182.487 258.953 177.93 258.953C170.703 258.953 164.16 257.553 158.301 254.754C152.507 251.954 147.884 247.56 144.434 241.57C141.048 235.581 139.355 227.866 139.355 218.426V146.355H177.539V206.805C177.539 213.966 178.548 219.435 180.566 223.211C182.65 226.922 186.035 228.777 190.723 228.777C195.54 228.777 199.251 227.475 201.855 224.871C204.525 222.267 206.38 218.426 207.422 213.348C208.464 208.27 208.984 202.085 208.984 194.793V146.355H247.168ZM340.332 144.402C342.415 144.402 344.596 144.565 346.875 144.891C349.154 145.151 350.846 145.379 351.953 145.574L348.535 181.609C347.298 181.284 345.703 181.023 343.75 180.828C341.797 180.568 339.062 180.438 335.547 180.438C333.138 180.438 330.566 180.665 327.832 181.121C325.098 181.577 322.493 182.553 320.02 184.051C317.611 185.483 315.625 187.697 314.062 190.691C312.5 193.621 311.719 197.592 311.719 202.605V257H273.535V146.355H301.953L307.91 164.031H309.766C311.784 160.385 314.355 157.098 317.48 154.168C320.671 151.173 324.219 148.797 328.125 147.039C332.096 145.281 336.165 144.402 340.332 144.402ZM405.273 305.047C389.583 305.047 377.474 302.41 368.945 297.137C360.482 291.928 356.25 284.409 356.25 274.578C356.25 268.003 358.301 262.566 362.402 258.27C366.504 253.973 372.656 250.88 380.859 248.992C377.474 247.56 374.512 245.249 371.973 242.059C369.499 238.868 368.262 235.711 368.262 232.586C368.262 229.135 369.206 226.108 371.094 223.504C372.982 220.835 376.921 217.677 382.91 214.031C377.181 211.492 372.656 207.521 369.336 202.117C366.081 196.714 364.453 190.138 364.453 182.391C364.453 174.383 366.276 167.547 369.922 161.883C373.633 156.219 379.004 151.889 386.035 148.895C393.132 145.9 401.758 144.402 411.914 144.402C413.281 144.402 415.365 144.533 418.164 144.793C420.964 144.988 423.796 145.249 426.66 145.574C429.525 145.835 431.738 146.095 433.301 146.355H471.875V164.812L456.738 170.379C457.78 172.267 458.561 174.318 459.082 176.531C459.603 178.745 459.863 181.089 459.863 183.562C459.863 195.477 455.664 204.721 447.266 211.297C438.932 217.872 426.465 221.16 409.863 221.16C405.762 221.16 402.507 220.9 400.098 220.379C399.642 221.225 399.284 222.072 399.023 222.918C398.828 223.699 398.73 224.448 398.73 225.164C398.73 226.661 399.609 227.866 401.367 228.777C403.19 229.624 405.371 230.21 407.91 230.535C410.514 230.861 412.988 231.023 415.332 231.023H433.691C446.126 231.023 455.436 233.628 461.621 238.836C467.806 244.044 470.898 251.889 470.898 262.371C470.898 275.848 465.137 286.329 453.613 293.816C442.155 301.303 426.042 305.047 405.273 305.047ZM407.129 281.219C411.751 281.219 416.406 280.796 421.094 279.949C425.781 279.168 429.72 277.866 432.91 276.043C436.1 274.22 437.695 271.811 437.695 268.816C437.695 266.538 436.751 264.812 434.863 263.641C432.975 262.534 430.534 261.785 427.539 261.395C424.544 261.004 421.387 260.809 418.066 260.809H403.223C400.488 260.809 397.982 261.232 395.703 262.078C393.49 262.99 391.732 264.194 390.43 265.691C389.128 267.189 388.477 268.882 388.477 270.77C388.477 273.895 390.169 276.401 393.555 278.289C396.94 280.242 401.465 281.219 407.129 281.219ZM412.305 199.578C415.951 199.578 418.75 198.178 420.703 195.379C422.721 192.579 423.73 188.38 423.73 182.781C423.73 177.052 422.786 172.755 420.898 169.891C419.01 167.026 416.146 165.594 412.305 165.594C408.333 165.594 405.371 167.026 403.418 169.891C401.465 172.69 400.488 176.922 400.488 182.586C400.488 188.25 401.465 192.514 403.418 195.379C405.371 198.178 408.333 199.578 412.305 199.578ZM538.574 144.402C549.316 144.402 558.594 146.29 566.406 150.066C574.219 153.777 580.241 159.376 584.473 166.863C588.704 174.35 590.82 183.725 590.82 194.988V211.98H522.559C522.884 217.775 525.033 222.527 529.004 226.238C533.04 229.949 538.965 231.805 546.777 231.805C553.678 231.805 559.993 231.121 565.723 229.754C571.517 228.387 577.474 226.271 583.594 223.406V250.848C578.255 253.647 572.428 255.698 566.113 257C559.798 258.302 551.823 258.953 542.188 258.953C531.055 258.953 521.094 256.967 512.305 252.996C503.516 249.025 496.582 242.872 491.504 234.539C486.491 226.206 483.984 215.496 483.984 202.41C483.984 189.129 486.263 178.224 490.82 169.695C495.378 161.102 501.758 154.754 509.961 150.652C518.164 146.486 527.702 144.402 538.574 144.402ZM539.941 170.379C535.449 170.379 531.673 171.811 528.613 174.676C525.618 177.475 523.861 181.902 523.34 187.957H556.152C556.087 184.702 555.436 181.74 554.199 179.07C552.962 176.401 551.139 174.285 548.73 172.723C546.387 171.16 543.457 170.379 539.941 170.379Z" fill="#7200A7"/>
<path d="M1136.84 114.227C1154.94 114.227 1168.48 118.165 1177.47 126.043C1186.52 133.921 1191.04 145.118 1191.04 159.637C1191.04 166.147 1190.1 172.397 1188.21 178.387C1186.39 184.376 1183.36 189.715 1179.13 194.402C1174.96 199.09 1169.4 202.801 1162.43 205.535C1155.53 208.27 1147 209.637 1136.84 209.637H1126V257H1087.43V114.227H1136.84ZM1135.96 145.379H1126V178.191H1133.62C1136.94 178.191 1140.03 177.638 1142.9 176.531C1145.76 175.359 1148.04 173.504 1149.73 170.965C1151.49 168.361 1152.37 164.91 1152.37 160.613C1152.37 156.121 1151.04 152.475 1148.37 149.676C1145.7 146.811 1141.56 145.379 1135.96 145.379ZM1317.21 201.434C1317.21 210.678 1315.95 218.882 1313.41 226.043C1310.87 233.204 1307.19 239.227 1302.37 244.109C1297.55 248.992 1291.73 252.703 1284.89 255.242C1278.05 257.716 1270.34 258.953 1261.75 258.953C1253.74 258.953 1246.38 257.716 1239.68 255.242C1233.04 252.703 1227.24 248.992 1222.29 244.109C1217.35 239.227 1213.5 233.204 1210.77 226.043C1208.1 218.882 1206.77 210.678 1206.77 201.434C1206.77 189.194 1208.98 178.842 1213.41 170.379C1217.9 161.915 1224.28 155.47 1232.55 151.043C1240.88 146.616 1250.81 144.402 1262.33 144.402C1272.94 144.402 1282.38 146.616 1290.65 151.043C1298.92 155.47 1305.4 161.915 1310.09 170.379C1314.84 178.842 1317.21 189.194 1317.21 201.434ZM1245.54 201.434C1245.54 207.749 1246.09 213.087 1247.2 217.449C1248.3 221.746 1250.06 225.034 1252.47 227.312C1254.94 229.526 1258.17 230.633 1262.14 230.633C1266.11 230.633 1269.27 229.526 1271.61 227.312C1273.95 225.034 1275.65 221.746 1276.69 217.449C1277.79 213.087 1278.35 207.749 1278.35 201.434C1278.35 195.118 1277.79 189.845 1276.69 185.613C1275.65 181.382 1273.92 178.191 1271.51 176.043C1269.17 173.895 1265.98 172.82 1261.94 172.82C1256.15 172.82 1251.95 175.229 1249.34 180.047C1246.8 184.865 1245.54 191.993 1245.54 201.434ZM1421.32 223.016C1421.32 230.047 1419.75 236.264 1416.63 241.668C1413.5 247.072 1408.49 251.303 1401.59 254.363C1394.75 257.423 1385.74 258.953 1374.54 258.953C1366.66 258.953 1359.6 258.53 1353.35 257.684C1347.16 256.837 1340.88 255.21 1334.5 252.801V222.234C1341.47 225.424 1348.56 227.736 1355.79 229.168C1363.02 230.535 1368.71 231.219 1372.88 231.219C1377.18 231.219 1380.3 230.763 1382.25 229.852C1384.27 228.875 1385.28 227.443 1385.28 225.555C1385.28 223.927 1384.6 222.56 1383.23 221.453C1381.93 220.281 1379.55 218.947 1376.1 217.449C1372.72 215.952 1367.93 213.934 1361.75 211.395C1355.63 208.855 1350.52 206.089 1346.41 203.094C1342.38 200.099 1339.35 196.518 1337.33 192.352C1335.31 188.185 1334.3 183.074 1334.3 177.02C1334.3 166.212 1338.47 158.074 1346.8 152.605C1355.14 147.137 1366.17 144.402 1379.91 144.402C1387.2 144.402 1394.07 145.216 1400.52 146.844C1406.96 148.406 1413.63 150.717 1420.54 153.777L1410.09 178.387C1404.62 175.913 1399.08 173.927 1393.48 172.43C1387.89 170.932 1383.43 170.184 1380.11 170.184C1377.11 170.184 1374.8 170.574 1373.17 171.355C1371.54 172.137 1370.73 173.276 1370.73 174.773C1370.73 176.141 1371.28 177.345 1372.39 178.387C1373.56 179.428 1375.74 180.633 1378.93 182C1382.12 183.367 1386.78 185.288 1392.9 187.762C1399.34 190.366 1404.65 193.165 1408.82 196.16C1413.05 199.09 1416.17 202.671 1418.19 206.902C1420.27 211.134 1421.32 216.505 1421.32 223.016ZM1496.8 228.777C1500.26 228.777 1503.41 228.419 1506.28 227.703C1509.14 226.987 1512.14 226.076 1515.26 224.969V252.801C1511.1 254.624 1506.67 256.089 1501.98 257.195C1497.36 258.367 1491.43 258.953 1484.21 258.953C1477.05 258.953 1470.73 257.846 1465.26 255.633C1459.79 253.354 1455.53 249.448 1452.47 243.914C1449.47 238.315 1447.98 230.535 1447.98 220.574V174.969H1434.6V159.441L1451.59 147.43L1461.45 124.188H1486.45V146.355H1513.6V174.969H1486.45V218.035C1486.45 221.616 1487.36 224.318 1489.19 226.141C1491.01 227.898 1493.55 228.777 1496.8 228.777Z" fill="#7200A7"/>
<g clip-path="url(#clip0_1234_2426)">
<path d="M796.154 379.364C808.026 388.625 821.68 395.71 836 400.001C850.32 395.71 863.974 388.626 875.847 379.364C861.73 375.066 848.349 368.722 836 360.44C823.651 368.722 810.269 375.066 796.154 379.364Z" fill="url(#paint0_linear_1234_2426)"/>
<path d="M680.994 298.651C682.837 313.604 687.481 328.257 694.58 341.415C707.744 348.52 722.397 353.165 737.35 355.007C730.38 341.965 725.416 328.033 722.54 313.461C707.968 310.584 694.036 305.621 680.994 298.651Z" fill="url(#paint1_linear_1234_2426)"/>
<path d="M934.65 355.007C949.603 353.165 964.256 348.52 977.42 341.415C984.519 328.257 989.163 313.604 991.006 298.651C977.964 305.621 964.031 310.584 949.46 313.461C946.583 328.033 941.62 341.965 934.65 355.007Z" fill="url(#paint2_linear_1234_2426)"/>
<path d="M789.796 311.57C778.148 314.569 766.147 316.167 754.064 316.337C757.817 329.814 764.012 342.802 772.117 354.212C785.921 351.893 799.493 347.085 811.691 340.198C803.28 331.561 795.923 321.947 789.796 311.57Z" fill="url(#paint3_linear_1234_2426)"/>
<path d="M860.309 340.198C872.508 347.085 886.073 351.893 899.883 354.212C907.988 342.802 914.184 329.815 917.944 316.337C905.854 316.167 893.859 314.569 882.205 311.57C876.077 321.947 868.727 331.561 860.309 340.198Z" fill="url(#paint4_linear_1234_2426)"/>
<path d="M818.531 300.95C823.115 307.987 828.425 314.521 834.327 320.437C834.871 320.981 835.429 321.511 836 322.069C836.572 321.511 837.129 320.981 837.673 320.437C843.575 314.521 848.886 307.987 853.476 300.95C847.452 297.985 841.583 294.612 836 290.865C830.417 294.611 824.549 297.985 818.531 300.95Z" fill="url(#paint5_linear_1234_2426)"/>
<path d="M771.736 264.264C765.148 262.959 758.62 261.198 752.269 259.028C750.535 267.236 749.658 275.613 749.658 283.983C749.658 284.745 749.672 285.52 749.679 286.309C750.481 286.329 751.256 286.343 752.018 286.343C760.389 286.343 768.766 285.466 776.973 283.739C774.803 277.381 773.041 270.853 771.736 264.264Z" fill="url(#paint6_linear_1234_2426)"/>
<path d="M900.264 264.264C898.958 270.853 897.198 277.38 895.029 283.738C903.236 285.465 911.613 286.342 919.983 286.342C920.744 286.342 921.52 286.328 922.308 286.308C922.33 285.519 922.343 284.744 922.343 283.982C922.343 275.612 921.466 267.235 919.732 259.027C913.38 261.198 906.853 262.959 900.264 264.264Z" fill="url(#paint7_linear_1234_2426)"/>
<path d="M947.57 246.205C950.568 257.852 952.166 269.853 952.336 281.93C965.813 278.183 978.801 271.989 990.211 263.883C987.892 250.08 983.078 236.508 976.197 224.309C967.561 232.72 957.946 240.077 947.57 246.205Z" fill="url(#paint8_linear_1234_2426)"/>
<path d="M719.677 281.93C719.834 269.853 721.431 257.852 724.43 246.205C714.054 240.078 704.439 232.721 695.804 224.31C688.923 236.509 684.109 250.081 681.79 263.884C693.199 271.989 706.187 278.183 719.677 281.93Z" fill="url(#paint9_linear_1234_2426)"/>
<path d="M803.055 277.741C807.536 275.572 811.916 273.24 816.227 270.812C813.82 268.343 811.426 265.821 809.094 263.217C805.605 263.379 802.13 263.489 798.711 263.557C800.016 268.344 801.477 273.077 803.055 277.741Z" fill="url(#paint10_linear_1234_2426)"/>
<path d="M855.773 270.812C860.077 273.24 864.484 275.572 868.945 277.741C870.522 273.077 871.984 268.344 873.29 263.557C869.87 263.489 866.395 263.38 862.927 263.217C860.573 265.821 858.18 268.344 855.773 270.812Z" fill="url(#paint11_linear_1234_2426)"/>
<path d="M636 200C640.291 214.321 647.369 227.975 656.637 239.847C660.935 225.724 667.279 212.355 675.561 200C667.279 187.646 660.935 174.277 656.637 160.154C647.369 172.026 640.291 185.681 636 200Z" fill="url(#paint12_linear_1234_2426)"/>
<path d="M1015.36 160.154C1011.06 174.277 1004.71 187.652 996.439 200C1004.71 212.348 1011.07 225.723 1015.36 239.847C1024.63 227.975 1031.71 214.321 1036 200C1031.71 185.681 1024.63 172.026 1015.36 160.154Z" fill="url(#paint13_linear_1234_2426)"/>
<path d="M758.259 232.945C762.916 234.522 767.655 235.984 772.443 237.29C772.511 233.87 772.619 230.395 772.783 226.907C770.219 224.581 767.683 222.202 765.187 219.774C762.76 224.078 760.428 228.484 758.259 232.945Z" fill="url(#paint14_linear_1234_2426)"/>
<path d="M899.55 237.29C904.323 235.984 909.07 234.522 913.734 232.945C911.559 228.484 909.233 224.077 906.785 219.773C904.316 222.18 901.781 224.573 899.238 226.906C899.42 230.395 899.503 233.87 899.55 237.29Z" fill="url(#paint15_linear_1234_2426)"/>
<path d="M926.864 200C930.611 205.583 933.984 211.444 936.948 217.475C943.986 212.885 950.534 207.574 956.436 201.672C956.98 201.128 957.51 200.571 958.068 200C957.51 199.429 956.98 198.871 956.436 198.328C950.534 192.425 943.986 187.114 936.948 182.524C933.984 188.556 930.611 194.418 926.864 200Z" fill="url(#paint16_linear_1234_2426)"/>
<path d="M715.564 198.328C715.034 198.871 714.49 199.429 713.932 200C714.49 200.571 715.02 201.128 715.564 201.672C721.466 207.574 728.014 212.885 735.052 217.475C738.017 211.444 741.388 205.583 745.135 200C741.388 194.418 738.017 188.556 735.052 182.524C728.013 187.115 721.466 192.425 715.564 198.328Z" fill="url(#paint17_linear_1234_2426)"/>
<path d="M913.734 167.055C909.07 165.477 904.323 164.015 899.55 162.71C899.503 166.131 899.42 169.605 899.238 173.094C901.781 175.426 904.317 177.819 906.785 180.226C909.233 175.922 911.559 171.516 913.734 167.055Z" fill="url(#paint18_linear_1234_2426)"/>
<path d="M772.443 162.71C767.655 164.015 762.916 165.478 758.259 167.055C760.427 171.515 762.76 175.922 765.187 180.226C767.683 177.798 770.219 175.419 772.783 173.094C772.62 169.605 772.511 166.131 772.443 162.71Z" fill="url(#paint19_linear_1234_2426)"/>
<path d="M952.336 118.07C952.166 130.147 950.568 142.148 947.57 153.797C957.946 159.923 967.561 167.28 976.196 175.691C983.077 163.492 987.891 149.92 990.21 136.117C978.801 128.011 965.813 121.817 952.336 118.07Z" fill="url(#paint20_linear_1234_2426)"/>
<path d="M719.677 118.07C706.187 121.817 693.199 128.011 681.789 136.117C684.108 149.92 688.922 163.492 695.803 175.691C704.438 167.273 714.053 159.923 724.43 153.797C721.431 142.148 719.834 130.147 719.677 118.07Z" fill="url(#paint21_linear_1234_2426)"/>
<path d="M919.983 113.657C911.613 113.657 903.236 114.535 895.029 116.261C897.198 122.619 898.958 129.147 900.264 135.735C906.853 137.041 913.381 138.802 919.731 140.971C921.466 132.764 922.342 124.386 922.342 116.017C922.342 115.255 922.329 114.48 922.308 113.691C921.52 113.671 920.744 113.657 919.983 113.657Z" fill="url(#paint22_linear_1234_2426)"/>
<path d="M771.736 135.736C773.041 129.147 774.803 122.62 776.972 116.262C768.765 114.536 760.387 113.658 752.017 113.658C751.255 113.658 750.48 113.672 749.678 113.693C749.671 114.482 749.657 115.257 749.657 116.018C749.657 124.389 750.534 132.766 752.268 140.973C758.619 138.803 765.147 137.042 771.736 135.736Z" fill="url(#paint23_linear_1234_2426)"/>
<path d="M868.945 122.26C864.484 124.429 860.077 126.761 855.773 129.189C858.18 131.657 860.573 134.179 862.927 136.784C866.395 136.621 869.87 136.512 873.29 136.444C871.984 131.657 870.522 126.924 868.945 122.26Z" fill="url(#paint24_linear_1234_2426)"/>
<path d="M816.227 129.189C811.916 126.761 807.536 124.429 803.055 122.26C801.477 126.924 800.016 131.657 798.711 136.444C802.131 136.511 805.605 136.621 809.094 136.784C811.426 134.179 813.82 131.657 816.227 129.189Z" fill="url(#paint25_linear_1234_2426)"/>
<path d="M853.475 99.0522C848.885 92.0139 843.574 85.4795 837.673 79.5639C837.128 79.0201 836.571 78.4764 835.999 77.9326C835.428 78.4764 834.87 79.0201 834.327 79.5639C828.424 85.4795 823.114 92.0139 818.531 99.0522C824.548 102.016 830.416 105.39 835.999 109.136C841.583 105.39 847.451 102.017 853.475 99.0522Z" fill="url(#paint26_linear_1234_2426)"/>
<path d="M737.35 44.9941C722.397 46.8363 707.744 51.4809 694.58 58.5863C687.481 71.7441 682.837 86.3973 680.994 101.35C694.036 94.3809 707.968 89.4168 722.54 86.5402C725.416 71.9824 730.38 58.0355 737.35 44.9941Z" fill="url(#paint27_linear_1234_2426)"/>
<path d="M934.65 44.9941C941.62 58.0355 946.583 71.9684 949.46 86.5402C964.031 89.4168 977.964 94.3809 991.006 101.35C989.163 86.3973 984.519 71.7441 977.42 58.5863C964.256 51.4809 949.603 46.8371 934.65 44.9941Z" fill="url(#paint28_linear_1234_2426)"/>
<path d="M882.204 88.4305C893.852 85.432 905.854 83.8336 917.943 83.6773C914.183 70.1867 907.988 57.1992 899.882 45.7891C886.072 48.1086 872.507 52.9156 860.308 59.8031C868.72 68.4398 876.077 78.0539 882.204 88.4305Z" fill="url(#paint29_linear_1234_2426)"/>
<path d="M811.691 59.8031C799.492 52.9156 785.92 48.1086 772.116 45.7891C764.012 57.1992 757.816 70.1867 754.063 83.6641C766.146 83.8336 778.148 85.432 789.795 88.4305C795.923 78.0539 803.28 68.4398 811.691 59.8031Z" fill="url(#paint30_linear_1234_2426)"/>
<path d="M875.846 20.6369C863.973 11.3768 850.32 4.29082 836 0.000976562C821.68 4.2916 808.026 11.3768 796.154 20.6377C810.269 24.9354 823.651 31.2799 836 39.5611C848.348 31.2791 861.73 24.9346 875.846 20.6369Z" fill="url(#paint31_linear_1234_2426)"/>
<path d="M830.3 239.6C829.433 239.6 828.433 239.2 827.3 238.4C826.167 237.467 825.5 236.6 825.3 235.8C824.833 234 824.6 230.533 824.6 225.4C824.6 222.267 824.7 218.933 824.9 215.4C825.167 211.867 825.533 208.133 826 204.2C823.667 204.667 821.833 205.033 820.5 205.3C819.167 205.5 818.367 205.6 818.1 205.6C812.767 205.6 810.1 203.067 810.1 198C810.1 196.467 810.333 195.033 810.8 193.7C813.4 186.1 818.267 179.7 825.4 174.5C832.4 169.367 839.967 166.8 848.1 166.8C853.033 166.8 857.533 168.1 861.6 170.7C866.2 173.7 868.5 177.567 868.5 182.3C868.5 186.1 867.1 190.567 864.3 195.7C861.767 200.233 858.867 204 855.6 207C846.667 215 839.767 219 834.9 219C833.9 219 832.9 218.667 831.9 218C830.767 217.267 830.2 216.4 830.2 215.4C830.2 214.333 830.733 213.267 831.8 212.2C832.867 211.133 833.933 210.6 835 210.6C835.4 210.6 835.6 210.733 835.6 211C835.6 211.4 835 212 833.8 212.8C832.667 213.733 832.1 214.6 832.1 215.4V215.9C832.9 216.1 833.7 216.2 834.5 216.2C837.567 216.2 841.867 213.933 847.4 209.4C855.6 202.8 860.8 194.667 863 185C863.4 183.2 863.6 181.533 863.6 180C863.6 172.467 859.1 168.7 850.1 168.7C842.567 168.7 835.667 170.767 829.4 174.9C826.467 176.833 823.8 179.167 821.4 181.9C819.067 184.633 817 187.733 815.2 191.2C813.6 194.4 812.8 197.167 812.8 199.5C812.8 202.3 814.033 203.7 816.5 203.7C817.7 203.7 819.5 203.4 821.9 202.8C824.233 202.2 825.8 201.6 826.6 201C828 188.4 832.2 180.1 839.2 176.1C839.933 175.767 840.533 175.5 841 175.3C841.533 175.033 842.033 174.9 842.5 174.9C842.967 174.9 843.2 175.033 843.2 175.3C843.2 175.7 842.6 176.467 841.4 177.6C837 181.6 833.9 188.4 832.1 198C839.767 193.733 843.6 188.933 843.6 183.6V182.4C843.6 181.733 843.7 181.4 843.9 181.4C844.3 181.4 844.7 181.967 845.1 183.1C845.367 183.9 845.5 184.667 845.5 185.4C845.5 188.467 843.833 191.7 840.5 195.1C837.567 198.167 834.5 200.467 831.3 202C830.567 206.467 830 210.8 829.6 215C829.2 219.2 829 223.267 829 227.2C829 231.8 829.333 235.1 830 237.1C830.733 237.1 831.867 235.833 833.4 233.3L835.8 229.5C836.133 229.5 836.3 229.833 836.3 230.5C836.3 231.233 836.133 232.033 835.8 232.9C835.467 233.833 835 234.867 834.4 236C833 238.4 831.633 239.6 830.3 239.6Z" fill="#7200A7"/>
</g>
<defs>
<linearGradient id="paint0_linear_1234_2426" x1="875.847" y1="380.221" x2="796.154" y2="380.221" gradientUnits="userSpaceOnUse">
<stop stop-color="#9600DD"/>
<stop offset="0.525" stop-color="#7200A7"/>
<stop offset="1" stop-color="#510077"/>
</linearGradient>
<linearGradient id="paint1_linear_1234_2426" x1="737.35" y1="326.829" x2="680.994" y2="326.829" gradientUnits="userSpaceOnUse">
<stop stop-color="#9600DD"/>
<stop offset="0.525" stop-color="#7200A7"/>
<stop offset="1" stop-color="#510077"/>
</linearGradient>
<linearGradient id="paint2_linear_1234_2426" x1="991.006" y1="326.829" x2="934.65" y2="326.829" gradientUnits="userSpaceOnUse">
<stop stop-color="#9600DD"/>
<stop offset="0.525" stop-color="#7200A7"/>
<stop offset="1" stop-color="#510077"/>
</linearGradient>
<linearGradient id="paint3_linear_1234_2426" x1="811.691" y1="332.891" x2="754.064" y2="332.891" gradientUnits="userSpaceOnUse">
<stop stop-color="#9600DD"/>
<stop offset="0.525" stop-color="#7200A7"/>
<stop offset="1" stop-color="#510077"/>
</linearGradient>
<linearGradient id="paint4_linear_1234_2426" x1="917.944" y1="332.891" x2="860.309" y2="332.891" gradientUnits="userSpaceOnUse">
<stop stop-color="#9600DD"/>
<stop offset="0.525" stop-color="#7200A7"/>
<stop offset="1" stop-color="#510077"/>
</linearGradient>
<linearGradient id="paint5_linear_1234_2426" x1="853.476" y1="306.467" x2="818.531" y2="306.467" gradientUnits="userSpaceOnUse">
<stop stop-color="#9600DD"/>
<stop offset="0.525" stop-color="#7200A7"/>
<stop offset="1" stop-color="#510077"/>
</linearGradient>
<linearGradient id="paint6_linear_1234_2426" x1="776.973" y1="272.686" x2="749.658" y2="272.686" gradientUnits="userSpaceOnUse">
<stop stop-color="#9600DD"/>
<stop offset="0.525" stop-color="#7200A7"/>
<stop offset="1" stop-color="#510077"/>
</linearGradient>
<linearGradient id="paint7_linear_1234_2426" x1="922.343" y1="272.685" x2="895.029" y2="272.685" gradientUnits="userSpaceOnUse">
<stop stop-color="#9600DD"/>
<stop offset="0.525" stop-color="#7200A7"/>
<stop offset="1" stop-color="#510077"/>
</linearGradient>
<linearGradient id="paint8_linear_1234_2426" x1="990.211" y1="253.119" x2="947.57" y2="253.119" gradientUnits="userSpaceOnUse">
<stop stop-color="#9600DD"/>
<stop offset="0.525" stop-color="#7200A7"/>
<stop offset="1" stop-color="#510077"/>
</linearGradient>
<linearGradient id="paint9_linear_1234_2426" x1="724.43" y1="253.12" x2="681.79" y2="253.12" gradientUnits="userSpaceOnUse">
<stop stop-color="#9600DD"/>
<stop offset="0.525" stop-color="#7200A7"/>
<stop offset="1" stop-color="#510077"/>
</linearGradient>
<linearGradient id="paint10_linear_1234_2426" x1="816.227" y1="270.479" x2="798.711" y2="270.479" gradientUnits="userSpaceOnUse">
<stop stop-color="#9600DD"/>
<stop offset="0.525" stop-color="#7200A7"/>
<stop offset="1" stop-color="#510077"/>
</linearGradient>
<linearGradient id="paint11_linear_1234_2426" x1="873.29" y1="270.479" x2="855.773" y2="270.479" gradientUnits="userSpaceOnUse">
<stop stop-color="#9600DD"/>
<stop offset="0.525" stop-color="#7200A7"/>
<stop offset="1" stop-color="#510077"/>
</linearGradient>
<linearGradient id="paint12_linear_1234_2426" x1="675.561" y1="200.001" x2="636" y2="200.001" gradientUnits="userSpaceOnUse">
<stop stop-color="#9600DD"/>
<stop offset="0.525" stop-color="#7200A7"/>
<stop offset="1" stop-color="#510077"/>
</linearGradient>
<linearGradient id="paint13_linear_1234_2426" x1="1036" y1="200.001" x2="996.439" y2="200.001" gradientUnits="userSpaceOnUse">
<stop stop-color="#9600DD"/>
<stop offset="0.525" stop-color="#7200A7"/>
<stop offset="1" stop-color="#510077"/>
</linearGradient>
<linearGradient id="paint14_linear_1234_2426" x1="772.783" y1="228.532" x2="758.259" y2="228.532" gradientUnits="userSpaceOnUse">
<stop stop-color="#9600DD"/>
<stop offset="0.525" stop-color="#7200A7"/>
<stop offset="1" stop-color="#510077"/>
</linearGradient>
<linearGradient id="paint15_linear_1234_2426" x1="913.734" y1="228.532" x2="899.238" y2="228.532" gradientUnits="userSpaceOnUse">
<stop stop-color="#9600DD"/>
<stop offset="0.525" stop-color="#7200A7"/>
<stop offset="1" stop-color="#510077"/>
</linearGradient>
<linearGradient id="paint16_linear_1234_2426" x1="958.068" y1="200" x2="926.864" y2="200" gradientUnits="userSpaceOnUse">
<stop stop-color="#9600DD"/>
<stop offset="0.525" stop-color="#7200A7"/>
<stop offset="1" stop-color="#510077"/>
</linearGradient>
<linearGradient id="paint17_linear_1234_2426" x1="745.135" y1="200" x2="713.932" y2="200" gradientUnits="userSpaceOnUse">
<stop stop-color="#9600DD"/>
<stop offset="0.525" stop-color="#7200A7"/>
<stop offset="1" stop-color="#510077"/>
</linearGradient>
<linearGradient id="paint18_linear_1234_2426" x1="913.734" y1="171.468" x2="899.238" y2="171.468" gradientUnits="userSpaceOnUse">
<stop stop-color="#9600DD"/>
<stop offset="0.525" stop-color="#7200A7"/>
<stop offset="1" stop-color="#510077"/>
</linearGradient>
<linearGradient id="paint19_linear_1234_2426" x1="772.783" y1="171.468" x2="758.259" y2="171.468" gradientUnits="userSpaceOnUse">
<stop stop-color="#9600DD"/>
<stop offset="0.525" stop-color="#7200A7"/>
<stop offset="1" stop-color="#510077"/>
</linearGradient>
<linearGradient id="paint20_linear_1234_2426" x1="990.21" y1="146.881" x2="947.57" y2="146.881" gradientUnits="userSpaceOnUse">
<stop stop-color="#9600DD"/>
<stop offset="0.525" stop-color="#7200A7"/>
<stop offset="1" stop-color="#510077"/>
</linearGradient>
<linearGradient id="paint21_linear_1234_2426" x1="724.43" y1="146.881" x2="681.789" y2="146.881" gradientUnits="userSpaceOnUse">
<stop stop-color="#9600DD"/>
<stop offset="0.525" stop-color="#7200A7"/>
<stop offset="1" stop-color="#510077"/>
</linearGradient>
<linearGradient id="paint22_linear_1234_2426" x1="922.342" y1="127.314" x2="895.029" y2="127.314" gradientUnits="userSpaceOnUse">
<stop stop-color="#9600DD"/>
<stop offset="0.525" stop-color="#7200A7"/>
<stop offset="1" stop-color="#510077"/>
</linearGradient>
<linearGradient id="paint23_linear_1234_2426" x1="776.972" y1="127.316" x2="749.657" y2="127.316" gradientUnits="userSpaceOnUse">
<stop stop-color="#9600DD"/>
<stop offset="0.525" stop-color="#7200A7"/>
<stop offset="1" stop-color="#510077"/>
</linearGradient>
<linearGradient id="paint24_linear_1234_2426" x1="873.29" y1="129.522" x2="855.773" y2="129.522" gradientUnits="userSpaceOnUse">
<stop stop-color="#9600DD"/>
<stop offset="0.525" stop-color="#7200A7"/>
<stop offset="1" stop-color="#510077"/>
</linearGradient>
<linearGradient id="paint25_linear_1234_2426" x1="816.227" y1="129.522" x2="798.711" y2="129.522" gradientUnits="userSpaceOnUse">
<stop stop-color="#9600DD"/>
<stop offset="0.525" stop-color="#7200A7"/>
<stop offset="1" stop-color="#510077"/>
</linearGradient>
<linearGradient id="paint26_linear_1234_2426" x1="853.475" y1="93.5342" x2="818.531" y2="93.5342" gradientUnits="userSpaceOnUse">
<stop stop-color="#9600DD"/>
<stop offset="0.525" stop-color="#7200A7"/>
<stop offset="1" stop-color="#510077"/>
</linearGradient>
<linearGradient id="paint27_linear_1234_2426" x1="737.35" y1="73.1719" x2="680.994" y2="73.1719" gradientUnits="userSpaceOnUse">
<stop stop-color="#9600DD"/>
<stop offset="0.525" stop-color="#7200A7"/>
<stop offset="1" stop-color="#510077"/>
</linearGradient>
<linearGradient id="paint28_linear_1234_2426" x1="991.006" y1="73.1719" x2="934.65" y2="73.1719" gradientUnits="userSpaceOnUse">
<stop stop-color="#9600DD"/>
<stop offset="0.525" stop-color="#7200A7"/>
<stop offset="1" stop-color="#510077"/>
</linearGradient>
<linearGradient id="paint29_linear_1234_2426" x1="917.943" y1="67.1098" x2="860.308" y2="67.1098" gradientUnits="userSpaceOnUse">
<stop stop-color="#9600DD"/>
<stop offset="0.525" stop-color="#7200A7"/>
<stop offset="1" stop-color="#510077"/>
</linearGradient>
<linearGradient id="paint30_linear_1234_2426" x1="811.691" y1="67.1098" x2="754.063" y2="67.1098" gradientUnits="userSpaceOnUse">
<stop stop-color="#9600DD"/>
<stop offset="0.525" stop-color="#7200A7"/>
<stop offset="1" stop-color="#510077"/>
</linearGradient>
<linearGradient id="paint31_linear_1234_2426" x1="875.846" y1="19.7811" x2="796.154" y2="19.7811" gradientUnits="userSpaceOnUse">
<stop stop-color="#9600DD"/>
<stop offset="0.525" stop-color="#7200A7"/>
<stop offset="1" stop-color="#510077"/>
</linearGradient>
<clipPath id="clip0_1234_2426">
<rect width="400" height="400" fill="white" transform="translate(636)"/>
</clipPath>
</defs>
</svg>
