<svg width="1025" height="400" viewBox="0 0 1025 400" fill="none" xmlns="http://www.w3.org/2000/svg">
<path d="M489.844 36.2266C507.943 36.2266 521.484 40.1654 530.469 48.043C539.518 55.9206 544.043 67.1185 544.043 81.6367C544.043 88.1471 543.099 94.3971 541.211 100.387C539.388 106.376 536.361 111.715 532.129 116.402C527.962 121.09 522.396 124.801 515.43 127.535C508.529 130.27 500 131.637 489.844 131.637H479.004V179H440.43V36.2266H489.844ZM488.965 67.3789H479.004V100.191H486.621C489.941 100.191 493.034 99.638 495.898 98.5312C498.763 97.3594 501.042 95.5039 502.734 92.9648C504.492 90.3607 505.371 86.9102 505.371 82.6133C505.371 78.1211 504.036 74.4753 501.367 71.6758C498.698 68.8112 494.564 67.3789 488.965 67.3789ZM672.168 68.3555V179H643.359L638.574 165.23H636.328C634.049 168.941 631.152 171.969 627.637 174.312C624.186 176.591 620.345 178.251 616.113 179.293C611.882 180.4 607.487 180.953 602.93 180.953C595.703 180.953 589.16 179.553 583.301 176.754C577.507 173.954 572.884 169.56 569.434 163.57C566.048 157.581 564.355 149.866 564.355 140.426V68.3555H602.539V128.805C602.539 135.966 603.548 141.435 605.566 145.211C607.65 148.922 611.035 150.777 615.723 150.777C620.54 150.777 624.251 149.475 626.855 146.871C629.525 144.267 631.38 140.426 632.422 135.348C633.464 130.27 633.984 124.085 633.984 116.793V68.3555H672.168ZM765.332 66.4023C767.415 66.4023 769.596 66.5651 771.875 66.8906C774.154 67.151 775.846 67.3789 776.953 67.5742L773.535 103.609C772.298 103.284 770.703 103.023 768.75 102.828C766.797 102.568 764.062 102.438 760.547 102.438C758.138 102.438 755.566 102.665 752.832 103.121C750.098 103.577 747.493 104.553 745.02 106.051C742.611 107.483 740.625 109.697 739.062 112.691C737.5 115.621 736.719 119.592 736.719 124.605V179H698.535V68.3555H726.953L732.91 86.0312H734.766C736.784 82.3854 739.355 79.0977 742.48 76.168C745.671 73.1732 749.219 70.7969 753.125 69.0391C757.096 67.2812 761.165 66.4023 765.332 66.4023ZM830.273 227.047C814.583 227.047 802.474 224.41 793.945 219.137C785.482 213.928 781.25 206.409 781.25 196.578C781.25 190.003 783.301 184.566 787.402 180.27C791.504 175.973 797.656 172.88 805.859 170.992C802.474 169.56 799.512 167.249 796.973 164.059C794.499 160.868 793.262 157.711 793.262 154.586C793.262 151.135 794.206 148.108 796.094 145.504C797.982 142.835 801.921 139.677 807.91 136.031C802.181 133.492 797.656 129.521 794.336 124.117C791.081 118.714 789.453 112.138 789.453 104.391C789.453 96.3828 791.276 89.5469 794.922 83.8828C798.633 78.2188 804.004 73.8893 811.035 70.8945C818.132 67.8997 826.758 66.4023 836.914 66.4023C838.281 66.4023 840.365 66.5326 843.164 66.793C845.964 66.9883 848.796 67.2487 851.66 67.5742C854.525 67.8346 856.738 68.0951 858.301 68.3555H896.875V86.8125L881.738 92.3789C882.78 94.2669 883.561 96.3177 884.082 98.5312C884.603 100.745 884.863 103.089 884.863 105.562C884.863 117.477 880.664 126.721 872.266 133.297C863.932 139.872 851.465 143.16 834.863 143.16C830.762 143.16 827.507 142.9 825.098 142.379C824.642 143.225 824.284 144.072 824.023 144.918C823.828 145.699 823.73 146.448 823.73 147.164C823.73 148.661 824.609 149.866 826.367 150.777C828.19 151.624 830.371 152.21 832.91 152.535C835.514 152.861 837.988 153.023 840.332 153.023H858.691C871.126 153.023 880.436 155.628 886.621 160.836C892.806 166.044 895.898 173.889 895.898 184.371C895.898 197.848 890.137 208.329 878.613 215.816C867.155 223.303 851.042 227.047 830.273 227.047ZM832.129 203.219C836.751 203.219 841.406 202.796 846.094 201.949C850.781 201.168 854.72 199.866 857.91 198.043C861.1 196.22 862.695 193.811 862.695 190.816C862.695 188.538 861.751 186.812 859.863 185.641C857.975 184.534 855.534 183.785 852.539 183.395C849.544 183.004 846.387 182.809 843.066 182.809H828.223C825.488 182.809 822.982 183.232 820.703 184.078C818.49 184.99 816.732 186.194 815.43 187.691C814.128 189.189 813.477 190.882 813.477 192.77C813.477 195.895 815.169 198.401 818.555 200.289C821.94 202.242 826.465 203.219 832.129 203.219ZM837.305 121.578C840.951 121.578 843.75 120.178 845.703 117.379C847.721 114.579 848.73 110.38 848.73 104.781C848.73 99.0521 847.786 94.7552 845.898 91.8906C844.01 89.026 841.146 87.5938 837.305 87.5938C833.333 87.5938 830.371 89.026 828.418 91.8906C826.465 94.6901 825.488 98.9219 825.488 104.586C825.488 110.25 826.465 114.514 828.418 117.379C830.371 120.178 833.333 121.578 837.305 121.578ZM963.574 66.4023C974.316 66.4023 983.594 68.2904 991.406 72.0664C999.219 75.7773 1005.24 81.3763 1009.47 88.8633C1013.7 96.3503 1015.82 105.725 1015.82 116.988V133.98H947.559C947.884 139.775 950.033 144.527 954.004 148.238C958.04 151.949 963.965 153.805 971.777 153.805C978.678 153.805 984.993 153.121 990.723 151.754C996.517 150.387 1002.47 148.271 1008.59 145.406V172.848C1003.26 175.647 997.428 177.698 991.113 179C984.798 180.302 976.823 180.953 967.188 180.953C956.055 180.953 946.094 178.967 937.305 174.996C928.516 171.025 921.582 164.872 916.504 156.539C911.491 148.206 908.984 137.496 908.984 124.41C908.984 111.129 911.263 100.224 915.82 91.6953C920.378 83.1016 926.758 76.7539 934.961 72.6523C943.164 68.4857 952.702 66.4023 963.574 66.4023ZM964.941 92.3789C960.449 92.3789 956.673 93.8112 953.613 96.6758C950.618 99.4753 948.861 103.902 948.34 109.957H981.152C981.087 106.702 980.436 103.74 979.199 101.07C977.962 98.401 976.139 96.2852 973.73 94.7227C971.387 93.1602 968.457 92.3789 964.941 92.3789ZM489.844 234.227C507.943 234.227 521.484 238.165 530.469 246.043C539.518 253.921 544.043 265.118 544.043 279.637C544.043 286.147 543.099 292.397 541.211 298.387C539.388 304.376 536.361 309.715 532.129 314.402C527.962 319.09 522.396 322.801 515.43 325.535C508.529 328.27 500 329.637 489.844 329.637H479.004V377H440.43V234.227H489.844ZM488.965 265.379H479.004V298.191H486.621C489.941 298.191 493.034 297.638 495.898 296.531C498.763 295.359 501.042 293.504 502.734 290.965C504.492 288.361 505.371 284.91 505.371 280.613C505.371 276.121 504.036 272.475 501.367 269.676C498.698 266.811 494.564 265.379 488.965 265.379ZM670.215 321.434C670.215 330.678 668.945 338.882 666.406 346.043C663.867 353.204 660.189 359.227 655.371 364.109C650.553 368.992 644.727 372.703 637.891 375.242C631.055 377.716 623.34 378.953 614.746 378.953C606.738 378.953 599.382 377.716 592.676 375.242C586.035 372.703 580.241 368.992 575.293 364.109C570.345 359.227 566.504 353.204 563.77 346.043C561.1 338.882 559.766 330.678 559.766 321.434C559.766 309.194 561.979 298.842 566.406 290.379C570.898 281.915 577.279 275.47 585.547 271.043C593.88 266.616 603.809 264.402 615.332 264.402C625.944 264.402 635.384 266.616 643.652 271.043C651.921 275.47 658.398 281.915 663.086 290.379C667.839 298.842 670.215 309.194 670.215 321.434ZM598.535 321.434C598.535 327.749 599.089 333.087 600.195 337.449C601.302 341.746 603.06 345.034 605.469 347.312C607.943 349.526 611.165 350.633 615.137 350.633C619.108 350.633 622.266 349.526 624.609 347.312C626.953 345.034 628.646 341.746 629.688 337.449C630.794 333.087 631.348 327.749 631.348 321.434C631.348 315.118 630.794 309.845 629.688 305.613C628.646 301.382 626.921 298.191 624.512 296.043C622.168 293.895 618.978 292.82 614.941 292.82C609.147 292.82 604.948 295.229 602.344 300.047C599.805 304.865 598.535 311.993 598.535 321.434ZM774.316 343.016C774.316 350.047 772.754 356.264 769.629 361.668C766.504 367.072 761.491 371.303 754.59 374.363C747.754 377.423 738.737 378.953 727.539 378.953C719.661 378.953 712.598 378.53 706.348 377.684C700.163 376.837 693.88 375.21 687.5 372.801V342.234C694.466 345.424 701.562 347.736 708.789 349.168C716.016 350.535 721.712 351.219 725.879 351.219C730.176 351.219 733.301 350.763 735.254 349.852C737.272 348.875 738.281 347.443 738.281 345.555C738.281 343.927 737.598 342.56 736.23 341.453C734.928 340.281 732.552 338.947 729.102 337.449C725.716 335.952 720.931 333.934 714.746 331.395C708.626 328.855 703.516 326.089 699.414 323.094C695.378 320.099 692.35 316.518 690.332 312.352C688.314 308.185 687.305 303.074 687.305 297.02C687.305 286.212 691.471 278.074 699.805 272.605C708.138 267.137 719.173 264.402 732.91 264.402C740.202 264.402 747.07 265.216 753.516 266.844C759.961 268.406 766.634 270.717 773.535 273.777L763.086 298.387C757.617 295.913 752.083 293.927 746.484 292.43C740.885 290.932 736.426 290.184 733.105 290.184C730.111 290.184 727.799 290.574 726.172 291.355C724.544 292.137 723.73 293.276 723.73 294.773C723.73 296.141 724.284 297.345 725.391 298.387C726.562 299.428 728.743 300.633 731.934 302C735.124 303.367 739.779 305.288 745.898 307.762C752.344 310.366 757.65 313.165 761.816 316.16C766.048 319.09 769.173 322.671 771.191 326.902C773.275 331.134 774.316 336.505 774.316 343.016ZM849.805 348.777C853.255 348.777 856.413 348.419 859.277 347.703C862.142 346.987 865.137 346.076 868.262 344.969V372.801C864.095 374.624 859.668 376.089 854.98 377.195C850.358 378.367 844.434 378.953 837.207 378.953C830.046 378.953 823.73 377.846 818.262 375.633C812.793 373.354 808.529 369.448 805.469 363.914C802.474 358.315 800.977 350.535 800.977 340.574V294.969H787.598V279.441L804.59 267.43L814.453 244.188H839.453V266.355H866.602V294.969H839.453V338.035C839.453 341.616 840.365 344.318 842.188 346.141C844.01 347.898 846.549 348.777 849.805 348.777Z" fill="#7200A7"/>
<g clip-path="url(#clip0_1232_2376)">
<path d="M160.154 379.364C172.026 388.625 185.68 395.71 200 400.001C214.32 395.71 227.974 388.626 239.847 379.364C225.73 375.066 212.349 368.722 200 360.44C187.651 368.722 174.269 375.066 160.154 379.364Z" fill="url(#paint0_linear_1232_2376)"/>
<path d="M44.9937 298.651C46.8366 313.604 51.4812 328.257 58.5796 341.415C71.7437 348.52 86.3968 353.165 101.35 355.007C94.3796 341.965 89.4163 328.033 86.5397 313.461C71.9679 310.584 58.0358 305.621 44.9937 298.651Z" fill="url(#paint1_linear_1232_2376)"/>
<path d="M298.65 355.007C313.603 353.165 328.256 348.52 341.42 341.415C348.519 328.257 353.163 313.604 355.006 298.651C341.964 305.621 328.031 310.584 313.46 313.461C310.583 328.033 305.62 341.965 298.65 355.007Z" fill="url(#paint2_linear_1232_2376)"/>
<path d="M153.796 311.57C142.148 314.569 130.147 316.167 118.064 316.337C121.817 329.814 128.012 342.802 136.117 354.212C149.921 351.893 163.493 347.085 175.691 340.198C167.28 331.561 159.923 321.947 153.796 311.57Z" fill="url(#paint3_linear_1232_2376)"/>
<path d="M224.309 340.198C236.508 347.085 250.073 351.893 263.883 354.212C271.988 342.802 278.184 329.815 281.944 316.337C269.854 316.167 257.859 314.569 246.205 311.57C240.077 321.947 232.727 331.561 224.309 340.198Z" fill="url(#paint4_linear_1232_2376)"/>
<path d="M182.531 300.95C187.115 307.987 192.425 314.521 198.327 320.437C198.871 320.981 199.429 321.511 200 322.069C200.572 321.511 201.129 320.981 201.673 320.437C207.575 314.521 212.886 307.987 217.476 300.95C211.452 297.985 205.583 294.612 200 290.865C194.417 294.611 188.549 297.985 182.531 300.95Z" fill="url(#paint5_linear_1232_2376)"/>
<path d="M135.736 264.264C129.148 262.959 122.62 261.198 116.269 259.028C114.535 267.236 113.658 275.613 113.658 283.983C113.658 284.745 113.672 285.52 113.679 286.309C114.481 286.329 115.256 286.343 116.018 286.343C124.389 286.343 132.766 285.466 140.973 283.739C138.803 277.381 137.041 270.853 135.736 264.264Z" fill="url(#paint6_linear_1232_2376)"/>
<path d="M264.264 264.264C262.958 270.853 261.198 277.38 259.029 283.738C267.236 285.465 275.613 286.342 283.983 286.342C284.744 286.342 285.52 286.328 286.308 286.308C286.33 285.519 286.343 284.744 286.343 283.982C286.343 275.612 285.466 267.235 283.732 259.027C277.38 261.198 270.853 262.959 264.264 264.264Z" fill="url(#paint7_linear_1232_2376)"/>
<path d="M311.569 246.205C314.568 257.852 316.165 269.853 316.336 281.93C329.813 278.183 342.801 271.989 354.211 263.883C351.892 250.08 347.078 236.508 340.197 224.309C331.561 232.72 321.946 240.077 311.569 246.205Z" fill="url(#paint8_linear_1232_2376)"/>
<path d="M83.6775 281.93C83.8338 269.853 85.4314 257.852 88.4307 246.205C78.0541 240.078 68.4393 232.721 59.8041 224.31C52.9229 236.509 48.1088 250.081 45.79 263.884C57.1994 271.989 70.1869 278.183 83.6775 281.93Z" fill="url(#paint9_linear_1232_2376)"/>
<path d="M167.055 277.741C171.536 275.572 175.916 273.24 180.227 270.812C177.82 268.343 175.426 265.821 173.094 263.217C169.605 263.379 166.13 263.489 162.711 263.557C164.016 268.344 165.477 273.077 167.055 277.741Z" fill="url(#paint10_linear_1232_2376)"/>
<path d="M219.773 270.812C224.077 273.24 228.484 275.572 232.945 277.741C234.522 273.077 235.984 268.344 237.29 263.557C233.87 263.489 230.395 263.38 226.927 263.217C224.573 265.821 222.18 268.344 219.773 270.812Z" fill="url(#paint11_linear_1232_2376)"/>
<path d="M0 200C4.29062 214.321 11.3687 227.975 20.6375 239.847C24.9352 225.724 31.2789 212.355 39.5609 200C31.2789 187.646 24.9352 174.277 20.6375 160.154C11.3687 172.026 4.29062 185.681 0 200Z" fill="url(#paint12_linear_1232_2376)"/>
<path d="M379.362 160.154C375.065 174.277 368.714 187.652 360.439 200C368.714 212.348 375.066 225.723 379.362 239.847C388.631 227.975 395.709 214.321 400 200C395.709 185.681 388.631 172.026 379.362 160.154Z" fill="url(#paint13_linear_1232_2376)"/>
<path d="M122.259 232.945C126.917 234.522 131.656 235.984 136.443 237.29C136.511 233.87 136.62 230.395 136.783 226.907C134.22 224.581 131.683 222.202 129.188 219.774C126.76 224.078 124.428 228.484 122.259 232.945Z" fill="url(#paint14_linear_1232_2376)"/>
<path d="M263.55 237.29C268.323 235.984 273.069 234.522 277.734 232.945C275.558 228.484 273.233 224.077 270.785 219.773C268.316 222.18 265.78 224.573 263.237 226.906C263.42 230.395 263.503 233.87 263.55 237.29Z" fill="url(#paint15_linear_1232_2376)"/>
<path d="M290.864 200C294.611 205.583 297.984 211.444 300.949 217.475C307.986 212.885 314.535 207.574 320.436 201.672C320.98 201.128 321.51 200.571 322.068 200C321.51 199.429 320.98 198.871 320.436 198.328C314.535 192.425 307.986 187.114 300.949 182.524C297.984 188.556 294.611 194.418 290.864 200Z" fill="url(#paint16_linear_1232_2376)"/>
<path d="M79.5642 198.328C79.0337 198.871 78.4899 199.429 77.9321 200C78.4899 200.571 79.0196 201.128 79.5642 201.672C85.4657 207.574 92.0142 212.885 99.0517 217.475C102.017 211.444 105.388 205.583 109.135 200C105.388 194.418 102.017 188.556 99.0517 182.524C92.0134 187.115 85.4657 192.425 79.5642 198.328Z" fill="url(#paint17_linear_1232_2376)"/>
<path d="M277.734 167.055C273.069 165.477 268.323 164.015 263.55 162.71C263.503 166.131 263.42 169.605 263.237 173.094C265.78 175.426 268.317 177.819 270.785 180.226C273.233 175.922 275.558 171.516 277.734 167.055Z" fill="url(#paint18_linear_1232_2376)"/>
<path d="M136.443 162.71C131.656 164.015 126.917 165.478 122.259 167.055C124.428 171.515 126.76 175.922 129.188 180.226C131.683 177.798 134.22 175.419 136.783 173.094C136.621 169.605 136.511 166.131 136.443 162.71Z" fill="url(#paint19_linear_1232_2376)"/>
<path d="M316.336 118.07C316.165 130.147 314.568 142.148 311.569 153.797C321.946 159.923 331.561 167.28 340.196 175.691C347.077 163.492 351.891 149.92 354.21 136.117C342.801 128.011 329.813 121.817 316.336 118.07Z" fill="url(#paint20_linear_1232_2376)"/>
<path d="M83.6773 118.07C70.1867 121.817 57.1992 128.011 45.7891 136.117C48.1078 149.92 52.9219 163.492 59.8031 175.691C68.4383 167.273 78.0531 159.923 88.4297 153.797C85.4313 142.148 83.8336 130.147 83.6773 118.07Z" fill="url(#paint21_linear_1232_2376)"/>
<path d="M283.983 113.657C275.613 113.657 267.236 114.535 259.029 116.261C261.198 122.619 262.958 129.147 264.264 135.735C270.853 137.041 277.381 138.802 283.731 140.971C285.466 132.764 286.342 124.386 286.342 116.017C286.342 115.255 286.329 114.48 286.308 113.691C285.52 113.671 284.744 113.657 283.983 113.657Z" fill="url(#paint22_linear_1232_2376)"/>
<path d="M135.736 135.736C137.042 129.147 138.803 122.62 140.972 116.262C132.765 114.536 124.388 113.658 116.017 113.658C115.256 113.658 114.481 113.672 113.678 113.693C113.671 114.482 113.657 115.257 113.657 116.018C113.657 124.389 114.535 132.766 116.268 140.973C122.62 138.803 129.147 137.042 135.736 135.736Z" fill="url(#paint23_linear_1232_2376)"/>
<path d="M232.945 122.26C228.484 124.429 224.077 126.761 219.773 129.189C222.18 131.657 224.573 134.179 226.927 136.784C230.395 136.621 233.87 136.512 237.29 136.444C235.984 131.657 234.522 126.924 232.945 122.26Z" fill="url(#paint24_linear_1232_2376)"/>
<path d="M180.227 129.189C175.916 126.761 171.536 124.429 167.055 122.26C165.477 126.924 164.016 131.657 162.711 136.444C166.131 136.511 169.605 136.621 173.094 136.784C175.426 134.179 177.82 131.657 180.227 129.189Z" fill="url(#paint25_linear_1232_2376)"/>
<path d="M217.475 99.0522C212.885 92.0139 207.574 85.4795 201.672 79.5639C201.128 79.0201 200.571 78.4764 199.999 77.9326C199.428 78.4764 198.87 79.0201 198.326 79.5639C192.424 85.4795 187.114 92.0139 182.53 99.0522C188.548 102.016 194.416 105.39 199.999 109.136C205.583 105.39 211.451 102.017 217.475 99.0522Z" fill="url(#paint26_linear_1232_2376)"/>
<path d="M101.35 44.9941C86.3968 46.8363 71.7437 51.4809 58.5796 58.5863C51.4812 71.7441 46.8366 86.3973 44.9937 101.35C58.0358 94.3809 71.9679 89.4168 86.5397 86.5402C89.4163 71.9824 94.3796 58.0355 101.35 44.9941Z" fill="url(#paint27_linear_1232_2376)"/>
<path d="M298.65 44.9941C305.62 58.0355 310.583 71.9684 313.46 86.5402C328.031 89.4168 341.964 94.3809 355.006 101.35C353.163 86.3973 348.519 71.7441 341.42 58.5863C328.256 51.4809 313.603 46.8371 298.65 44.9941Z" fill="url(#paint28_linear_1232_2376)"/>
<path d="M246.204 88.4305C257.851 85.432 269.854 83.8336 281.943 83.6773C278.183 70.1867 271.988 57.1992 263.882 45.7891C250.072 48.1086 236.507 52.9156 224.308 59.8031C232.72 68.4398 240.077 78.0539 246.204 88.4305Z" fill="url(#paint29_linear_1232_2376)"/>
<path d="M175.691 59.8031C163.492 52.9156 149.921 48.1086 136.117 45.7891C128.012 57.1992 121.817 70.1867 118.063 83.6641C130.146 83.8336 142.148 85.432 153.796 88.4305C159.923 78.0539 167.28 68.4398 175.691 59.8031Z" fill="url(#paint30_linear_1232_2376)"/>
<path d="M239.846 20.6369C227.973 11.3768 214.32 4.29082 200 0.000976562C185.68 4.2916 172.026 11.3768 160.154 20.6377C174.269 24.9354 187.651 31.2799 200 39.5611C212.348 31.2791 225.73 24.9346 239.846 20.6369Z" fill="url(#paint31_linear_1232_2376)"/>
<path d="M194.3 239.6C193.433 239.6 192.433 239.2 191.3 238.4C190.167 237.467 189.5 236.6 189.3 235.8C188.833 234 188.6 230.533 188.6 225.4C188.6 222.267 188.7 218.933 188.9 215.4C189.167 211.867 189.533 208.133 190 204.2C187.667 204.667 185.833 205.033 184.5 205.3C183.167 205.5 182.367 205.6 182.1 205.6C176.767 205.6 174.1 203.067 174.1 198C174.1 196.467 174.333 195.033 174.8 193.7C177.4 186.1 182.267 179.7 189.4 174.5C196.4 169.367 203.967 166.8 212.1 166.8C217.033 166.8 221.533 168.1 225.6 170.7C230.2 173.7 232.5 177.567 232.5 182.3C232.5 186.1 231.1 190.567 228.3 195.7C225.767 200.233 222.867 204 219.6 207C210.667 215 203.767 219 198.9 219C197.9 219 196.9 218.667 195.9 218C194.767 217.267 194.2 216.4 194.2 215.4C194.2 214.333 194.733 213.267 195.8 212.2C196.867 211.133 197.933 210.6 199 210.6C199.4 210.6 199.6 210.733 199.6 211C199.6 211.4 199 212 197.8 212.8C196.667 213.733 196.1 214.6 196.1 215.4V215.9C196.9 216.1 197.7 216.2 198.5 216.2C201.567 216.2 205.867 213.933 211.4 209.4C219.6 202.8 224.8 194.667 227 185C227.4 183.2 227.6 181.533 227.6 180C227.6 172.467 223.1 168.7 214.1 168.7C206.567 168.7 199.667 170.767 193.4 174.9C190.467 176.833 187.8 179.167 185.4 181.9C183.067 184.633 181 187.733 179.2 191.2C177.6 194.4 176.8 197.167 176.8 199.5C176.8 202.3 178.033 203.7 180.5 203.7C181.7 203.7 183.5 203.4 185.9 202.8C188.233 202.2 189.8 201.6 190.6 201C192 188.4 196.2 180.1 203.2 176.1C203.933 175.767 204.533 175.5 205 175.3C205.533 175.033 206.033 174.9 206.5 174.9C206.967 174.9 207.2 175.033 207.2 175.3C207.2 175.7 206.6 176.467 205.4 177.6C201 181.6 197.9 188.4 196.1 198C203.767 193.733 207.6 188.933 207.6 183.6V182.4C207.6 181.733 207.7 181.4 207.9 181.4C208.3 181.4 208.7 181.967 209.1 183.1C209.367 183.9 209.5 184.667 209.5 185.4C209.5 188.467 207.833 191.7 204.5 195.1C201.567 198.167 198.5 200.467 195.3 202C194.567 206.467 194 210.8 193.6 215C193.2 219.2 193 223.267 193 227.2C193 231.8 193.333 235.1 194 237.1C194.733 237.1 195.867 235.833 197.4 233.3L199.8 229.5C200.133 229.5 200.3 229.833 200.3 230.5C200.3 231.233 200.133 232.033 199.8 232.9C199.467 233.833 199 234.867 198.4 236C197 238.4 195.633 239.6 194.3 239.6Z" fill="#7200A7"/>
</g>
<defs>
<linearGradient id="paint0_linear_1232_2376" x1="239.847" y1="380.221" x2="160.154" y2="380.221" gradientUnits="userSpaceOnUse">
<stop stop-color="#9600DD"/>
<stop offset="0.525" stop-color="#7200A7"/>
<stop offset="1" stop-color="#510077"/>
</linearGradient>
<linearGradient id="paint1_linear_1232_2376" x1="101.35" y1="326.829" x2="44.9937" y2="326.829" gradientUnits="userSpaceOnUse">
<stop stop-color="#9600DD"/>
<stop offset="0.525" stop-color="#7200A7"/>
<stop offset="1" stop-color="#510077"/>
</linearGradient>
<linearGradient id="paint2_linear_1232_2376" x1="355.006" y1="326.829" x2="298.65" y2="326.829" gradientUnits="userSpaceOnUse">
<stop stop-color="#9600DD"/>
<stop offset="0.525" stop-color="#7200A7"/>
<stop offset="1" stop-color="#510077"/>
</linearGradient>
<linearGradient id="paint3_linear_1232_2376" x1="175.691" y1="332.891" x2="118.064" y2="332.891" gradientUnits="userSpaceOnUse">
<stop stop-color="#9600DD"/>
<stop offset="0.525" stop-color="#7200A7"/>
<stop offset="1" stop-color="#510077"/>
</linearGradient>
<linearGradient id="paint4_linear_1232_2376" x1="281.944" y1="332.891" x2="224.309" y2="332.891" gradientUnits="userSpaceOnUse">
<stop stop-color="#9600DD"/>
<stop offset="0.525" stop-color="#7200A7"/>
<stop offset="1" stop-color="#510077"/>
</linearGradient>
<linearGradient id="paint5_linear_1232_2376" x1="217.476" y1="306.467" x2="182.531" y2="306.467" gradientUnits="userSpaceOnUse">
<stop stop-color="#9600DD"/>
<stop offset="0.525" stop-color="#7200A7"/>
<stop offset="1" stop-color="#510077"/>
</linearGradient>
<linearGradient id="paint6_linear_1232_2376" x1="140.973" y1="272.686" x2="113.658" y2="272.686" gradientUnits="userSpaceOnUse">
<stop stop-color="#9600DD"/>
<stop offset="0.525" stop-color="#7200A7"/>
<stop offset="1" stop-color="#510077"/>
</linearGradient>
<linearGradient id="paint7_linear_1232_2376" x1="286.343" y1="272.685" x2="259.029" y2="272.685" gradientUnits="userSpaceOnUse">
<stop stop-color="#9600DD"/>
<stop offset="0.525" stop-color="#7200A7"/>
<stop offset="1" stop-color="#510077"/>
</linearGradient>
<linearGradient id="paint8_linear_1232_2376" x1="354.211" y1="253.119" x2="311.569" y2="253.119" gradientUnits="userSpaceOnUse">
<stop stop-color="#9600DD"/>
<stop offset="0.525" stop-color="#7200A7"/>
<stop offset="1" stop-color="#510077"/>
</linearGradient>
<linearGradient id="paint9_linear_1232_2376" x1="88.4307" y1="253.12" x2="45.79" y2="253.12" gradientUnits="userSpaceOnUse">
<stop stop-color="#9600DD"/>
<stop offset="0.525" stop-color="#7200A7"/>
<stop offset="1" stop-color="#510077"/>
</linearGradient>
<linearGradient id="paint10_linear_1232_2376" x1="180.227" y1="270.479" x2="162.711" y2="270.479" gradientUnits="userSpaceOnUse">
<stop stop-color="#9600DD"/>
<stop offset="0.525" stop-color="#7200A7"/>
<stop offset="1" stop-color="#510077"/>
</linearGradient>
<linearGradient id="paint11_linear_1232_2376" x1="237.29" y1="270.479" x2="219.773" y2="270.479" gradientUnits="userSpaceOnUse">
<stop stop-color="#9600DD"/>
<stop offset="0.525" stop-color="#7200A7"/>
<stop offset="1" stop-color="#510077"/>
</linearGradient>
<linearGradient id="paint12_linear_1232_2376" x1="39.5609" y1="200.001" x2="0" y2="200.001" gradientUnits="userSpaceOnUse">
<stop stop-color="#9600DD"/>
<stop offset="0.525" stop-color="#7200A7"/>
<stop offset="1" stop-color="#510077"/>
</linearGradient>
<linearGradient id="paint13_linear_1232_2376" x1="400" y1="200.001" x2="360.439" y2="200.001" gradientUnits="userSpaceOnUse">
<stop stop-color="#9600DD"/>
<stop offset="0.525" stop-color="#7200A7"/>
<stop offset="1" stop-color="#510077"/>
</linearGradient>
<linearGradient id="paint14_linear_1232_2376" x1="136.783" y1="228.532" x2="122.259" y2="228.532" gradientUnits="userSpaceOnUse">
<stop stop-color="#9600DD"/>
<stop offset="0.525" stop-color="#7200A7"/>
<stop offset="1" stop-color="#510077"/>
</linearGradient>
<linearGradient id="paint15_linear_1232_2376" x1="277.734" y1="228.532" x2="263.237" y2="228.532" gradientUnits="userSpaceOnUse">
<stop stop-color="#9600DD"/>
<stop offset="0.525" stop-color="#7200A7"/>
<stop offset="1" stop-color="#510077"/>
</linearGradient>
<linearGradient id="paint16_linear_1232_2376" x1="322.068" y1="200" x2="290.864" y2="200" gradientUnits="userSpaceOnUse">
<stop stop-color="#9600DD"/>
<stop offset="0.525" stop-color="#7200A7"/>
<stop offset="1" stop-color="#510077"/>
</linearGradient>
<linearGradient id="paint17_linear_1232_2376" x1="109.135" y1="200" x2="77.9321" y2="200" gradientUnits="userSpaceOnUse">
<stop stop-color="#9600DD"/>
<stop offset="0.525" stop-color="#7200A7"/>
<stop offset="1" stop-color="#510077"/>
</linearGradient>
<linearGradient id="paint18_linear_1232_2376" x1="277.734" y1="171.468" x2="263.237" y2="171.468" gradientUnits="userSpaceOnUse">
<stop stop-color="#9600DD"/>
<stop offset="0.525" stop-color="#7200A7"/>
<stop offset="1" stop-color="#510077"/>
</linearGradient>
<linearGradient id="paint19_linear_1232_2376" x1="136.783" y1="171.468" x2="122.259" y2="171.468" gradientUnits="userSpaceOnUse">
<stop stop-color="#9600DD"/>
<stop offset="0.525" stop-color="#7200A7"/>
<stop offset="1" stop-color="#510077"/>
</linearGradient>
<linearGradient id="paint20_linear_1232_2376" x1="354.21" y1="146.881" x2="311.569" y2="146.881" gradientUnits="userSpaceOnUse">
<stop stop-color="#9600DD"/>
<stop offset="0.525" stop-color="#7200A7"/>
<stop offset="1" stop-color="#510077"/>
</linearGradient>
<linearGradient id="paint21_linear_1232_2376" x1="88.4297" y1="146.881" x2="45.7891" y2="146.881" gradientUnits="userSpaceOnUse">
<stop stop-color="#9600DD"/>
<stop offset="0.525" stop-color="#7200A7"/>
<stop offset="1" stop-color="#510077"/>
</linearGradient>
<linearGradient id="paint22_linear_1232_2376" x1="286.342" y1="127.314" x2="259.029" y2="127.314" gradientUnits="userSpaceOnUse">
<stop stop-color="#9600DD"/>
<stop offset="0.525" stop-color="#7200A7"/>
<stop offset="1" stop-color="#510077"/>
</linearGradient>
<linearGradient id="paint23_linear_1232_2376" x1="140.972" y1="127.316" x2="113.657" y2="127.316" gradientUnits="userSpaceOnUse">
<stop stop-color="#9600DD"/>
<stop offset="0.525" stop-color="#7200A7"/>
<stop offset="1" stop-color="#510077"/>
</linearGradient>
<linearGradient id="paint24_linear_1232_2376" x1="237.29" y1="129.522" x2="219.773" y2="129.522" gradientUnits="userSpaceOnUse">
<stop stop-color="#9600DD"/>
<stop offset="0.525" stop-color="#7200A7"/>
<stop offset="1" stop-color="#510077"/>
</linearGradient>
<linearGradient id="paint25_linear_1232_2376" x1="180.227" y1="129.522" x2="162.711" y2="129.522" gradientUnits="userSpaceOnUse">
<stop stop-color="#9600DD"/>
<stop offset="0.525" stop-color="#7200A7"/>
<stop offset="1" stop-color="#510077"/>
</linearGradient>
<linearGradient id="paint26_linear_1232_2376" x1="217.475" y1="93.5342" x2="182.53" y2="93.5342" gradientUnits="userSpaceOnUse">
<stop stop-color="#9600DD"/>
<stop offset="0.525" stop-color="#7200A7"/>
<stop offset="1" stop-color="#510077"/>
</linearGradient>
<linearGradient id="paint27_linear_1232_2376" x1="101.35" y1="73.1719" x2="44.9937" y2="73.1719" gradientUnits="userSpaceOnUse">
<stop stop-color="#9600DD"/>
<stop offset="0.525" stop-color="#7200A7"/>
<stop offset="1" stop-color="#510077"/>
</linearGradient>
<linearGradient id="paint28_linear_1232_2376" x1="355.006" y1="73.1719" x2="298.65" y2="73.1719" gradientUnits="userSpaceOnUse">
<stop stop-color="#9600DD"/>
<stop offset="0.525" stop-color="#7200A7"/>
<stop offset="1" stop-color="#510077"/>
</linearGradient>
<linearGradient id="paint29_linear_1232_2376" x1="281.943" y1="67.1098" x2="224.308" y2="67.1098" gradientUnits="userSpaceOnUse">
<stop stop-color="#9600DD"/>
<stop offset="0.525" stop-color="#7200A7"/>
<stop offset="1" stop-color="#510077"/>
</linearGradient>
<linearGradient id="paint30_linear_1232_2376" x1="175.691" y1="67.1098" x2="118.063" y2="67.1098" gradientUnits="userSpaceOnUse">
<stop stop-color="#9600DD"/>
<stop offset="0.525" stop-color="#7200A7"/>
<stop offset="1" stop-color="#510077"/>
</linearGradient>
<linearGradient id="paint31_linear_1232_2376" x1="239.846" y1="19.7811" x2="160.154" y2="19.7811" gradientUnits="userSpaceOnUse">
<stop stop-color="#9600DD"/>
<stop offset="0.525" stop-color="#7200A7"/>
<stop offset="1" stop-color="#510077"/>
</linearGradient>
<clipPath id="clip0_1232_2376">
<rect width="400" height="400" fill="white"/>
</clipPath>
</defs>
</svg>
